<svg xmlns="http://www.w3.org/2000/svg" width="1000" height="1000" style="width:100%;height:100%;transform:translate3d(0,0,0);content-visibility:visible"><defs><linearGradient id="a" spreadMethod="pad" gradientUnits="userSpaceOnUse" x1="504" y1="-24" x2="605.188" y2="-24"><stop offset="0%" stop-color="#2833C0"/><stop offset="50%" stop-color="#3A93D1"/><stop offset="100%" stop-color="#4CF2E2"/></linearGradient><linearGradient id="P" spreadMethod="pad" gradientUnits="userSpaceOnUse" x1="-58" y1="-2" x2="45" y2="0"><stop offset="0%" stop-color="#4CF2E2"/><stop offset="50%" stop-color="#3A93D1"/><stop offset="100%" stop-color="#2833C0"/></linearGradient><linearGradient id="b" spreadMethod="pad" gradientUnits="userSpaceOnUse" x1="-118" y1="-158" x2="-88.504" y2="-158"><stop offset="0%" stop-color="#2833C0"/><stop offset="50%" stop-color="#3A93D1"/><stop offset="100%" stop-color="#4CF2E2"/></linearGradient><linearGradient id="N" spreadMethod="pad" gradientUnits="userSpaceOnUse" x1="-58" y1="-2" x2="45" y2="0"><stop offset="0%" stop-color="#4CF2E2"/><stop offset="50%" stop-color="#3A93D1"/><stop offset="100%" stop-color="#2833C0"/></linearGradient><linearGradient id="c" spreadMethod="pad" gradientUnits="userSpaceOnUse" x1="222" y1="-208" x2="460.028" y2="-208"><stop offset="0%" stop-color="#2833C0"/><stop offset="50%" stop-color="#3A93D1"/><stop offset="100%" stop-color="#4CF2E2"/></linearGradient><linearGradient id="L" spreadMethod="pad" gradientUnits="userSpaceOnUse" x1="-58" y1="-2" x2="45" y2="0"><stop offset="0%" stop-color="#4CF2E2"/><stop offset="50%" stop-color="#3A93D1"/><stop offset="100%" stop-color="#2833C0"/></linearGradient><linearGradient id="d" spreadMethod="pad" gradientUnits="userSpaceOnUse" x1="9" y1="-461" x2="202.878" y2="-461"><stop offset="0%" stop-color="#2833C0"/><stop offset="50%" stop-color="#3A93D1"/><stop offset="100%" stop-color="#4CF2E2"/></linearGradient><linearGradient id="J" spreadMethod="pad" gradientUnits="userSpaceOnUse" x1="-58" y1="-2" x2="45" y2="0"><stop offset="0%" stop-color="#4CF2E2"/><stop offset="50%" stop-color="#3A93D1"/><stop offset="100%" stop-color="#2833C0"/></linearGradient><linearGradient id="e" spreadMethod="pad" gradientUnits="userSpaceOnUse" x1="-549" y1="-102" x2="-192.142" y2="-102"><stop offset="0%" stop-color="#2833C0"/><stop offset="50%" stop-color="#3A93D1"/><stop offset="100%" stop-color="#4CF2E2"/></linearGradient><linearGradient id="H" spreadMethod="pad" gradientUnits="userSpaceOnUse" x1="-58" y1="-2" x2="45" y2="0"><stop offset="0%" stop-color="#4CF2E2"/><stop offset="50%" stop-color="#3A93D1"/><stop offset="100%" stop-color="#2833C0"/></linearGradient><linearGradient id="f" spreadMethod="pad" gradientUnits="userSpaceOnUse" x1="162" y1="-19" x2="352.549" y2="-19"><stop offset="0%" stop-color="#2833C0"/><stop offset="50%" stop-color="#3A93D1"/><stop offset="100%" stop-color="#4CF2E2"/></linearGradient><linearGradient id="F" spreadMethod="pad" gradientUnits="userSpaceOnUse" x1="-58" y1="-2" x2="45" y2="0"><stop offset="0%" stop-color="#4CF2E2"/><stop offset="50%" stop-color="#3A93D1"/><stop offset="100%" stop-color="#2833C0"/></linearGradient><linearGradient id="g" spreadMethod="pad" gradientUnits="userSpaceOnUse" x1="121" y1="25" x2="254.377" y2="25"><stop offset="0%" stop-color="#2833C0"/><stop offset="50%" stop-color="#3A93D1"/><stop offset="100%" stop-color="#4CF2E2"/></linearGradient><linearGradient id="D" spreadMethod="pad" gradientUnits="userSpaceOnUse" x1="-58" y1="-2" x2="45" y2="0"><stop offset="0%" stop-color="#4CF2E2"/><stop offset="50%" stop-color="#3A93D1"/><stop offset="100%" stop-color="#2833C0"/></linearGradient><linearGradient id="h" spreadMethod="pad" gradientUnits="userSpaceOnUse" x1="-99" y1="36" x2="22.047" y2="36"><stop offset="0%" stop-color="#2833C0"/><stop offset="50%" stop-color="#3A93D1"/><stop offset="100%" stop-color="#4CF2E2"/></linearGradient><linearGradient id="B" spreadMethod="pad" gradientUnits="userSpaceOnUse" x1="-58" y1="-2" x2="45" y2="0"><stop offset="0%" stop-color="#4CF2E2"/><stop offset="50%" stop-color="#3A93D1"/><stop offset="100%" stop-color="#2833C0"/></linearGradient><linearGradient id="i" spreadMethod="pad" gradientUnits="userSpaceOnUse" x1="-171" y1="1" x2="-90.355" y2="1"><stop offset="0%" stop-color="#2833C0"/><stop offset="50%" stop-color="#3A93D1"/><stop offset="100%" stop-color="#4CF2E2"/></linearGradient><linearGradient id="z" spreadMethod="pad" gradientUnits="userSpaceOnUse" x1="-58" y1="-2" x2="45" y2="0"><stop offset="0%" stop-color="#4CF2E2"/><stop offset="50%" stop-color="#3A93D1"/><stop offset="100%" stop-color="#2833C0"/></linearGradient><linearGradient id="j" spreadMethod="pad" gradientUnits="userSpaceOnUse" x1="-159" y1="386" x2="-26.714" y2="386"><stop offset="0%" stop-color="#2833C0"/><stop offset="50%" stop-color="#3A93D1"/><stop offset="100%" stop-color="#4CF2E2"/></linearGradient><linearGradient id="x" spreadMethod="pad" gradientUnits="userSpaceOnUse" x1="-58" y1="-2" x2="45" y2="0"><stop offset="0%" stop-color="#4CF2E2"/><stop offset="50%" stop-color="#3A93D1"/><stop offset="100%" stop-color="#2833C0"/></linearGradient><linearGradient id="k" spreadMethod="pad" gradientUnits="userSpaceOnUse" x1="-209" y1="346" x2="4.265" y2="346"><stop offset="0%" stop-color="#2833C0"/><stop offset="50%" stop-color="#3A93D1"/><stop offset="100%" stop-color="#4CF2E2"/></linearGradient><linearGradient id="v" spreadMethod="pad" gradientUnits="userSpaceOnUse" x1="-58" y1="-2" x2="45" y2="0"><stop offset="0%" stop-color="#4CF2E2"/><stop offset="50%" stop-color="#3A93D1"/><stop offset="100%" stop-color="#2833C0"/></linearGradient><linearGradient id="l" spreadMethod="pad" gradientUnits="userSpaceOnUse" x1="-649" y1="219" x2="-550.958" y2="219"><stop offset="0%" stop-color="#2833C0"/><stop offset="50%" stop-color="#3A93D1"/><stop offset="100%" stop-color="#4CF2E2"/></linearGradient><linearGradient id="t" spreadMethod="pad" gradientUnits="userSpaceOnUse" x1="-58" y1="-2" x2="45" y2="0"><stop offset="0%" stop-color="#4CF2E2"/><stop offset="50%" stop-color="#3A93D1"/><stop offset="100%" stop-color="#2833C0"/></linearGradient><linearGradient id="m" spreadMethod="pad" gradientUnits="userSpaceOnUse" x1="-628" y1="232" x2="-528.875" y2="232"><stop offset="0%" stop-color="#2833C0"/><stop offset="50%" stop-color="#3A93D1"/><stop offset="100%" stop-color="#4CF2E2"/></linearGradient><linearGradient id="r" spreadMethod="pad" gradientUnits="userSpaceOnUse" x1="-58" y1="-2" x2="45" y2="0"><stop offset="0%" stop-color="#4CF2E2"/><stop offset="50%" stop-color="#3A93D1"/><stop offset="100%" stop-color="#2833C0"/></linearGradient><mask id="O" mask-type="alpha"><path stroke="url(#a)" stroke-linecap="round" fill-opacity="0" stroke-miterlimit="10" stroke-width="5" d="M602.862-82.015v46.768l-47.196-26.015V8.056L506.674 34.36" transform="translate(1000 1000)" style="display:block"/></mask><mask id="M" mask-type="alpha"><path stroke="url(#b)" stroke-linecap="round" fill-opacity="0" stroke-miterlimit="10" stroke-width="5" d="m-90.361-115.132-24.496-12.261v-73.437" transform="translate(1000 1000)" style="display:block"/></mask><mask id="K" mask-type="alpha"><path stroke="url(#c)" stroke-linecap="round" fill-opacity="0" stroke-miterlimit="10" stroke-width="5" d="m458.282-236.177-132.459-81.47v166.948L225.254-95.902" transform="translate(1000 1000)" style="display:block"/></mask><mask id="I" mask-type="alpha"><path stroke="url(#d)" stroke-linecap="round" fill-opacity="0" stroke-miterlimit="10" stroke-width="5" d="m12.465-504.553 38.515-23.658 150.363 86.477v49.924" transform="translate(1000 1000)" style="display:block"/></mask><mask id="G" mask-type="alpha"><path stroke="url(#e)" stroke-linecap="round" fill-opacity="0" stroke-miterlimit="10" stroke-width="5" d="m-473.798 107.855-72.077-45.003v-172.666l351.858-200.63" transform="translate(1000 1000)" style="display:block"/></mask><mask id="E" mask-type="alpha"><path stroke="url(#f)" stroke-linecap="round" fill-opacity="0" stroke-miterlimit="10" stroke-width="5" d="m165.072-35.166 47.264 27.181 57.18-33.234 81.105 46.77" transform="translate(1000 1000)" style="display:block"/></mask><mask id="C" mask-type="alpha"><path stroke="url(#g)" stroke-linecap="round" fill-opacity="0" stroke-miterlimit="10" stroke-width="5" d="M124.217-11.423 252.594 62.75" transform="translate(1000 1000)" style="display:block"/></mask><mask id="A" mask-type="alpha"><path stroke="url(#h)" stroke-linecap="round" fill-opacity="0" stroke-miterlimit="10" stroke-width="5" d="M-57.258-33.525-93.785-12.36 17.25 51.25l-96.626 56.098" transform="translate(1000 1000)" style="display:block"/></mask><mask id="y" mask-type="alpha"><path stroke="url(#i)" stroke-linecap="round" fill-opacity="0" stroke-miterlimit="10" stroke-width="5" d="M-92.387-53.807-157.25-16l57.531 33.234-68.313 39.661" transform="translate(1000 1000)" style="display:block"/></mask><mask id="w" mask-type="alpha"><path stroke="url(#j)" stroke-linecap="round" fill-opacity="0" stroke-miterlimit="10" stroke-width="5" d="m-251.42 339.202 164.098 94.222 136.188-79.351" transform="translate(1000 1000)" style="display:block"/></mask><mask id="u" mask-type="alpha"><path stroke="url(#k)" stroke-linecap="round" fill-opacity="0" stroke-miterlimit="10" stroke-width="5" d="M-205.889 312.742-88.75 380l91.126-53.095" transform="translate(1000 1000)" style="display:block"/></mask><mask id="s" mask-type="alpha"><path stroke="url(#l)" stroke-linecap="round" fill-opacity="0" stroke-miterlimit="10" stroke-width="5" d="m-645.966 247.084 93.043-54.451" transform="translate(1000 1000)" style="display:block"/></mask><mask id="q" mask-type="alpha"><path stroke="url(#m)" stroke-linecap="round" fill-opacity="0" stroke-miterlimit="10" stroke-width="5" d="m-625 260 94.125-55.085" transform="translate(1000 1000)" style="display:block"/></mask><clipPath id="n"><path d="M0 0h1000v1000H0z"/></clipPath><clipPath id="S"><path d="M0 0h2000v2000H0z"/></clipPath><clipPath id="o"><path d="M0 0h2000v2000H0z"/></clipPath><clipPath id="Q"><path d="M0 0h2000v2000H0z"/></clipPath><clipPath id="p"><path d="M0 0h2000v2000H0z"/></clipPath><filter id="R" x="0%" y="0%" width="100%" height="100%"><feGaussianBlur in="SourceAlpha" result="drop_shadow_1"/><feOffset dx="25" in="drop_shadow_1" result="drop_shadow_2"/><feFlood flood-color="#0f0" flood-opacity="1" result="drop_shadow_3"/><feComposite in="drop_shadow_3" in2="drop_shadow_2" operator="in" result="drop_shadow_4"/><feMerge><feMergeNode/><feMergeNode in="SourceGraphic"/></feMerge><feGaussianBlur in="SourceAlpha" result="drop_shadow_1" stdDeviation="2.5"/><feOffset in="drop_shadow_1" result="drop_shadow_2"/><feFlood flood-color="#7ce7f2" flood-opacity=".8" result="drop_shadow_3"/><feComposite in="drop_shadow_3" in2="drop_shadow_2" operator="in" result="drop_shadow_4"/><feMerge><feMergeNode/><feMergeNode in="SourceGraphic"/></feMerge></filter></defs><g clip-path="url(#n)"><g clip-path="url(#o)" style="display:block" transform="scale(.5)"><path stroke-linejoin="round" stroke="#7BE7F1" stroke-width="3" d="M66.225-128.528-66.736-51.763c-3.915 2.259-7.083 7.75-7.071 12.247l.465 163.985c.013 4.504 3.203 6.322 7.116 4.062L66.736 51.766c3.92-2.263 7.083-7.749 7.07-12.253l-.466-163.984c-.012-4.498-3.195-6.32-7.115-4.057z" fill="none" transform="translate(440.848 581.941)" style="display:block"/><path stroke-linejoin="round" stroke="#7BE7F1" stroke-width="3" d="M37.534-76.634-37.85-33.112c-3.92 2.264-7.084 7.742-7.071 12.247l.265 93.444c.013 4.505 3.197 6.319 7.118 4.056l75.382-43.523c3.92-2.264 7.089-7.746 7.077-12.25l-.265-93.444c-.013-4.505-3.202-6.316-7.122-4.052z" fill="none" transform="translate(268.405 795.301)" style="display:block"/><path stroke-linejoin="round" stroke="#7BE7F1" stroke-width="3" d="m33.713-27.346-67.16-38.774c-3.914-2.26-7.105-.45-7.117 4.055l-.219 77.164c-.013 4.505 3.157 9.987 7.07 12.246l67.16 38.775c3.914 2.26 7.105.45 7.118-4.055l.218-77.164c.013-4.504-3.157-9.987-7.07-12.247z" fill="none" transform="translate(1599.124 661.419)" style="display:block"/><g opacity=".4"><path fill="#4A24B7" d="M149.447-261.477-150.44-88.337c-3.92 2.263-7.083 7.749-7.071 12.246l.946 333.515c.013 4.498 3.197 6.319 7.116 4.056L150.439 88.34c3.914-2.26 7.083-7.749 7.07-12.246l-.945-333.516c-.013-4.497-3.203-6.315-7.117-4.055z" transform="translate(754.914 720.99)" opacity="1" style="display:block"/></g><g opacity=".4"><path fill="#4A24B7" d="M37.033-75.721-37.342-32.78c-3.914 2.26-7.083 7.741-7.07 12.246l.261 92.198c.013 4.505 3.203 6.323 7.117 4.063l74.375-42.941c3.92-2.263 7.083-7.749 7.07-12.253l-.261-92.197c-.013-4.505-3.197-6.32-7.117-4.057z" transform="translate(401.845 830.805)" opacity="1" style="display:block"/></g><g opacity=".4"><path fill="#4A24B7" d="m85.065-43.246-169.603-97.919c-3.919-2.264-7.103-.442-7.116 4.062L-92.13 30.99c-.013 4.505 3.15 9.983 7.07 12.246l169.602 97.92c3.92 2.264 7.104.449 7.117-4.055l.476-168.093c.013-4.505-3.15-9.99-7.07-12.254z" transform="translate(1314.325 661.486)" opacity="1" style="display:block"/></g><g opacity=".4"><path fill="#4A24B7" d="m33.711-27.346-67.16-38.775c-3.913-2.26-7.104-.442-7.116 4.055l-.22 77.165c-.013 4.505 3.157 9.987 7.071 12.246l67.16 38.775c3.914 2.26 7.103.45 7.116-4.055l.219-77.165c.013-4.497-3.156-9.986-7.07-12.246z" transform="translate(1459.93 588.941)" opacity="1" style="display:block"/></g><g opacity=".2"><path fill="#37B5F4" d="M66.225-128.526-66.736-51.76c-3.914 2.259-7.083 7.749-7.071 12.246l.465 163.985c.013 4.504 3.203 6.322 7.117 4.062L66.736 51.768c3.921-2.263 7.082-7.749 7.07-12.253l-.465-163.985c-.013-4.497-3.196-6.32-7.116-4.056z" transform="translate(462.88 597.591)" opacity="1" style="display:block"/></g><g opacity=".2"><path fill="#37B5F4" d="m37.533-76.633-75.384 43.522c-3.92 2.264-7.083 7.742-7.07 12.247l.265 93.444c.013 4.505 3.196 6.319 7.116 4.056l75.384-43.523c3.92-2.263 7.089-7.745 7.077-12.25l-.265-93.444c-.013-4.505-3.203-6.315-7.123-4.052z" transform="translate(282.754 808.209)" opacity="1" style="display:block"/></g><g opacity=".2"><path fill="#37B5F4" d="m33.71-27.348-67.16-38.775c-3.914-2.259-7.104-.449-7.116 4.056l-.219 77.165c-.013 4.504 3.156 9.986 7.069 12.246l67.161 38.775c3.913 2.26 7.104.449 7.117-4.056l.218-77.164c.013-4.505-3.156-9.987-7.07-12.247z" transform="translate(1584.165 670.885)" opacity="1" style="display:block"/></g><g clip-path="url(#p)" style="display:block"><g style="display:block"><path stroke-miterlimit="10" stroke="#2833C0" stroke-width="5" d="m375 1259.999 94.124-55.084M354.034 1247.083l93.042-54.45M794.112 1312.741l117.139 67.258 91.126-53.095" fill="none"/><path stroke-miterlimit="10" stroke="#2833C0" stroke-width="5" d="m748.579 1339.201 164.099 94.222 136.187-79.351M907.613 946.191l-64.864 37.808 57.531 33.235-68.313 39.661M942.742 966.473l-36.528 21.166 111.036 63.61-96.627 56.098M1124.217 988.575l128.376 74.174M1165.073 964.833l47.263 27.182 57.18-33.234 81.105 46.768" fill="none"/><g><path stroke-miterlimit="10" stroke="#2833C0" stroke-width="5.571" d="m526.201 1107.855-72.077-45.003V890.186l351.858-200.63M1012.465 495.446l38.516-23.658 150.362 86.478v49.924M909.639 884.867l-24.496-12.259v-73.437M1458.282 763.822l-132.46-81.47v166.949l-100.568 54.796M1602.861 917.984v46.769l-47.195-26.015v69.318l-48.993 26.304" fill="none"/></g></g><g mask="url(#q)" style="display:block"><path fill="url(#r)" d="M0-58c32.01 0 58 25.99 58 58 0 32.01-25.99 58-58 58-32.01 0-58-25.99-58-58 0-32.01 25.99-58 58-58z" transform="rotate(144 78.734 669.578) scale(1.2)"/></g><g mask="url(#s)" style="display:block"><path fill="url(#t)" d="M0-58c32.01 0 58 25.99 58 58 0 32.01-25.99 58-58 58-32.01 0-58-25.99-58-58 0-32.01 25.99-58 58-58z" transform="rotate(144 69.846 659.504) scale(1.2)"/></g><g mask="url(#u)" style="display:block"><path fill="url(#v)" d="M0-58c32.01 0 58 25.99 58 58 0 32.01-25.99 58-58 58-32.01 0-58-25.99-58-58 0-32.01 25.99-58 58-58z" transform="rotate(30 -1997.161 1925.138) scale(1.78)"/></g><g mask="url(#w)" style="display:block"><path fill="url(#x)" d="M0-58c32.01 0 58 25.99 58 58 0 32.01-25.99 58-58 58-32.01 0-58-25.99-58-58 0-32.01 25.99-58 58-58z" transform="rotate(156.117 442.392 767.15) scale(2.05)"/></g><g mask="url(#y)" style="display:block"><path fill="url(#z)" d="M0-58c32.01 0 58 25.99 58 58 0 32.01-25.99 58-58 58-32.01 0-58-25.99-58-58 0-32.01 25.99-58 58-58z" transform="rotate(149.713 361.679 585.94) scale(1.06)"/></g><g mask="url(#A)" style="display:block"><path fill="url(#B)" d="M0-58c32.01 0 58 25.99 58 58 0 32.01-25.99 58-58 58-32.01 0-58-25.99-58-58 0-32.01 25.99-58 58-58z" transform="rotate(149.713 372.27 600.344) scale(1.06)"/></g><g mask="url(#C)" style="display:block"><path fill="url(#D)" d="M0-58c32.01 0 58 25.99 58 58 0 32.01-25.99 58-58 58-32.01 0-58-25.99-58-58 0-32.01 25.99-58 58-58z" transform="rotate(-150 805.439 373.94) scale(1.2)"/></g><g mask="url(#E)" style="display:block"><path fill="url(#F)" d="M0-58c32.01 0 58 25.99 58 58 0 32.01-25.99 58-58 58-32.01 0-58-25.99-58-58 0-32.01 25.99-58 58-58z" transform="rotate(32.713 -1028.764 2339.195) scale(1.06)"/></g><g mask="url(#G)" style="display:block"><path fill="url(#H)" d="M0-58c32.01 0 58 25.99 58 58 0 32.01-25.99 58-58 58-32.01 0-58-25.99-58-58 0-32.01 25.99-58 58-58z" transform="rotate(44.377 -1093.271 1186.238) scale(.58589)"/></g><g mask="url(#I)" style="display:block"><path fill="url(#J)" d="M0-58c32.01 0 58 25.99 58 58 0 32.01-25.99 58-58 58-32.01 0-58-25.99-58-58 0-32.01 25.99-58 58-58z" transform="rotate(-133.221 779.333 52.876) scale(1.37)"/></g><g mask="url(#K)" style="display:block"><path fill="url(#L)" d="M0-58c32.01 0 58 25.99 58 58 0 32.01-25.99 58-58 58-32.01 0-58-25.99-58-58 0-32.01 25.99-58 58-58z" transform="rotate(-133.221 940.4 73.28) scale(1.08)"/></g><g mask="url(#M)" style="display:block"><path fill="url(#N)" d="M0-58c32.01 0 58 25.99 58 58 0 32.01-25.99 58-58 58-32.01 0-58-25.99-58-58 0-32.01 25.99-58 58-58z" transform="rotate(89 67.498 820.305) scale(.94)"/></g><g mask="url(#O)" style="display:block"><path fill="url(#P)" d="M0-58c32.01 0 58 25.99 58 58 0 32.01-25.99 58-58 58-32.01 0-58-25.99-58-58 0-32.01 25.99-58 58-58z" transform="rotate(153.117 627.09 697.934) scale(.37698)"/></g></g><g clip-path="url(#Q)" style="display:block"><path stroke-linejoin="round" stroke="#7CE7F2" stroke-width="3" d="m-81.831-299.882-40.434 23.344c-3.639 2.101-6.58 7.194-6.568 11.368l.185 65.097c.012 4.182 2.971 5.868 6.61 3.767l40.434-23.345c3.639-2.101 6.58-7.193 6.568-11.375l-.185-65.097c-.012-4.174-2.971-5.86-6.61-3.759" fill="none" transform="translate(1000 1000)" style="display:block"/><g opacity=".2" style="display:block"><path fill="#37B5F4" d="m891.075 606.377-79.694 46.011c-3.639 2.101-6.579 7.194-6.567 11.376l.387 136.414c.012 4.182 2.971 5.868 6.61 3.767l79.693-46.011c3.633-2.097 6.573-7.19 6.561-11.372l-.386-136.414c-.012-4.182-2.971-5.868-6.604-3.771" opacity="1"/></g><path stroke-linejoin="round" stroke="#7CE7F2" stroke-width="3" d="m-108.925-393.622-79.694 46.011c-3.639 2.101-6.579 7.193-6.567 11.375l.387 136.414c.012 4.182 2.971 5.868 6.61 3.767l79.693-46.011c3.633-2.097 6.573-7.189 6.561-11.371l-.386-136.414c-.012-4.182-2.971-5.868-6.604-3.771" fill="none" transform="translate(1000 1000)" style="display:block"/><path stroke-linecap="round" stroke-linejoin="round" stroke="#EDCC45" stroke-width="6" d="m-177.549-329.386 44.846-25.764" fill="none" transform="translate(1000 1000)" style="display:block"/><path stroke-linecap="round" stroke-linejoin="round" stroke="#D852EF" stroke-width="6" d="m-177.549-313.541 57.619-33.102" fill="none" transform="translate(1000 1000)" style="display:block"/><path stroke-linecap="round" stroke-linejoin="round" stroke="#37B5F4" stroke-width="6" d="m-177.549-295.159 30.414-17.473" fill="none" transform="translate(1000 1000)" style="display:block"/><path stroke-linecap="round" stroke-linejoin="round" stroke="#4CF2E2" stroke-width="6" d="m-177.549-226.982 27.321-15.696" fill="none" transform="translate(1000 1000)" style="display:block"/><path stroke-linecap="round" stroke-linejoin="round" stroke="#37B5F4" stroke-width="6" d="m-177.549-274.64 42.751-24.56" fill="none" transform="translate(1000 1000)" style="display:block"/><g opacity=".2" style="display:block"><path fill="#37B5F4" d="m1003.92 473.679-53.267 30.753c-3.639 2.101-6.58 7.194-6.568 11.376l.26 91.639c.012 4.182 2.971 5.869 6.61 3.768l53.268-30.754c3.639-2.101 6.579-7.194 6.567-11.376l-.26-91.639c-.012-4.182-2.971-5.868-6.61-3.767" opacity="1"/></g><path stroke-linejoin="round" stroke="#7CE7F2" stroke-width="3" d="m3.92-526.321-53.267 30.753c-3.639 2.101-6.58 7.194-6.568 11.376l.26 91.639c.012 4.182 2.971 5.869 6.61 3.768l53.268-30.754c3.639-2.101 6.579-7.194 6.567-11.376l-.26-91.639c-.012-4.182-2.971-5.868-6.61-3.767" fill="none" transform="translate(1000 1000)" style="display:block"/><g style="display:block"><path stroke-miterlimit="10" stroke="#4CF2E2" stroke-width="8.5" d="M970.323 514.191c-5.822 10.084-6.15 20.795-.731 23.924 5.419 3.129 14.532-2.51 20.354-12.595 5.822-10.085 6.149-20.795.73-23.924-5.419-3.129-14.531 2.511-20.353 12.595z" fill="none"/><path stroke-miterlimit="10" stroke="#EDCC45" stroke-width="8.7" d="M969.592 538.115c5.419 3.129 14.532-2.51 20.354-12.595 5.822-10.085 6.149-20.795.73-23.924-3.592-2.074-8.807-.295-13.61 4.077" fill="none"/><path stroke-miterlimit="10" stroke="#D852EF" stroke-width="9" d="M965.745 528.683c-.15 4.366 1.121 7.858 3.847 9.432 2.767 1.598 6.496.909 10.26-1.489" fill="none"/></g><path stroke-linecap="round" stroke-linejoin="round" stroke="#37B5F4" stroke-width="6" d="m-41.241-434.992 36.652-21.057M-41.241-421.748l23.484-13.491M-7.324-427.17l8.834-5.075" fill="none" transform="translate(1000 1000)" style="display:block"/><g opacity=".2" style="display:block"><path fill="#37B5F4" d="m1267.637 645.373-132.054-76.241c-3.639-2.101-6.598-.415-6.61 3.767l-.492 173.368c-.012 4.182 2.929 9.274 6.568 11.375l132.054 76.242c3.639 2.101 6.598.415 6.61-3.767l.492-173.368c.012-4.182-2.929-9.275-6.568-11.376" opacity="1"/></g><path stroke-linejoin="round" stroke="#7CE7F2" stroke-width="3" d="m267.637-354.627-132.054-76.241c-3.639-2.101-6.598-.415-6.61 3.767l-.492 173.368c-.012 4.182 2.929 9.274 6.568 11.375l132.054 76.242c3.639 2.101 6.598.415 6.61-3.767l.492-173.368c.012-4.182-2.929-9.275-6.568-11.376" fill="none" transform="translate(1000 1000)" style="display:block"/><path stroke-linejoin="round" stroke="#7CE7F2" d="m242.319-306.88-97.296-56.174-.283 99.805 97.296 56.174.283-99.805" fill="none" transform="translate(1000 1000)" style="display:block"/><path stroke-linecap="round" stroke-linejoin="round" stroke="#EDCC45" stroke-width="6" d="m202.993-362.984-55.317-31.779" fill="none" transform="translate(1000 1000)" style="display:block"/><path stroke-linecap="round" stroke-linejoin="round" stroke="#D852EF" stroke-width="6" d="m175.391-361.904-27.715-15.923" fill="none" transform="translate(1000 1000)" style="display:block"/><path stroke-linecap="round" stroke-linejoin="round" stroke="#37B5F4" stroke-width="6" d="M256.504-196.824v-67.27" fill="none" transform="translate(1000 1000)" style="display:block"/><path stroke-linecap="round" stroke-miterlimit="10" stroke="#D852EF" stroke-width="1.857" d="M147.183-261.838s6.108-50.673 18.358-43.361c12.086 7.215 7.299 38.985 17.375 45 10.076 6.015 8.011-57.064 20.875-50.375 7.812 4.062 5.018 21.22 14.375 26.938 9 5.5 20.436-38.688 20.436-38.688" fill="none" transform="translate(1000 1000)" style="display:block"/><g style="display:block"><g opacity=".2"><path fill="#37B5F4" d="m1632.69 805.277-163.414-94.348c-3.64-2.101-6.598-.415-6.61 3.767l-.316 111.331c-.012 4.182 2.928 9.274 6.567 11.375l163.416 94.348c3.639 2.101 6.598.415 6.61-3.767l.316-111.331c.012-4.182-2.929-9.274-6.568-11.375" opacity="1"/></g><path stroke-linejoin="round" stroke="#7CE7F2" stroke-width="3" d="m1632.69 805.277-163.414-94.348c-3.64-2.101-6.598-.415-6.61 3.767l-.316 111.331c-.012 4.182 2.928 9.274 6.567 11.375l163.416 94.348c3.639 2.101 6.598.415 6.61-3.767l.316-111.331c.012-4.182-2.929-9.274-6.568-11.375" fill="none"/></g><g filter="url(#R)" style="display:block"><path stroke-linejoin="round" stroke="#7CE7F2" d="m1523.771 761.012-43.128-24.901-.256 90.378 43.128 24.9.256-90.377" fill="none"/></g><g style="display:block"><path stroke-miterlimit="10" stroke="#4CF2E2" stroke-width="10.5" d="M1614.853 852.16c8.84 15.31 9.336 31.572 1.109 36.322-8.227 4.75-22.062-3.812-30.901-19.122-8.839-15.31-9.336-31.571-1.109-36.321 8.227-4.75 22.062 3.811 30.901 19.121z" fill="none"/><path stroke-miterlimit="10" stroke="#EDCC45" stroke-width="10.7" d="M1608.552 843.272c2.261 2.606 4.397 5.59 6.301 8.888 8.84 15.31 9.336 31.572 1.109 36.322-7.237 4.178-18.812-1.943-27.51-13.897" fill="none"/><path stroke-miterlimit="10" stroke="#D852EF" stroke-width="11" d="M1592.59 832.182c7.445 1.855 16.077 9.264 22.263 19.978 6.941 12.022 8.738 24.63 5.206 31.792" fill="none"/></g><path stroke-linecap="round" stroke-linejoin="round" stroke="#37B5F4" stroke-width="6" d="M493.317-178.661v-14.173M508.7-169.272v-41.043" fill="none" transform="translate(1000 1000)" style="display:block"/><path stroke-linecap="round" stroke-linejoin="round" stroke="#D852EF" stroke-width="6" d="m563.456-181.353-27.048-15.539M563.456-164.88l-16.229-9.323M563.456-148.406l-8.114-4.662" fill="none" transform="translate(1000 1000)" style="display:block"/><path stroke-linecap="round" stroke-linejoin="round" stroke="#37B5F4" stroke-width="6" d="m619.624-175.522-83.889-48.193" fill="none" transform="translate(1000 1000)" style="display:block"/></g></g><path stroke-linejoin="round" stroke="#7BE7F1" stroke-width="4" d="M108.649-3.803 6.213-62.945c-3.639-2.1-9.519-2.1-13.128-.004l-101.77 59.143c-3.616 2.102-3.597 5.507.043 7.608L-6.207 62.943c3.64 2.102 9.513 2.098 13.129-.003L108.691 3.798c3.61-2.098 3.597-5.5-.042-7.601z" fill="none" transform="matrix(.5 0 0 .5 160.641 647.353)" style="display:block"/><path stroke-linejoin="round" stroke="#7BE7F1" stroke-width="4" d="M34.449-3.803 6.453-19.966c-3.64-2.101-9.52-2.102-13.136 0l-27.808 16.16c-3.616 2.102-3.596 5.507.043 7.608l27.997 16.165c3.638 2.1 9.519 2.1 13.134 0L34.492 3.805c3.615-2.1 3.597-5.506-.043-7.608z" fill="none" transform="matrix(.5 0 0 .5 796.311 629.129)" style="display:block"/><path stroke-linejoin="round" stroke="#7BE7F1" stroke-width="4" d="M71.547-3.804 6.333-41.454c-3.639-2.102-9.519-2.102-13.129-.004L-71.591-3.803c-3.615 2.101-3.59 5.503.049 7.604l65.214 37.651c3.64 2.101 9.513 2.104 13.128.004L71.596 3.8c3.609-2.097 3.591-5.502-.049-7.604z" fill="none" transform="matrix(.5 0 0 .5 855.208 611.022)" style="display:block"/><path stroke-linejoin="round" stroke="#7BE7F1" stroke-width="4" d="M144.105-3.804 6.101-83.481c-3.64-2.1-9.519-2.1-13.136 0L-144.142-3.802c-3.615 2.101-3.596 5.507.043 7.608L-6.094 83.483c3.633 2.098 9.512 2.098 13.128-.004L144.141 3.801c3.616-2.101 3.597-5.507-.036-7.605z" fill="none" transform="matrix(.5 0 0 .5 563.524 655.942)" style="display:block"/><path stroke-linejoin="round" stroke="#7BE7F1" stroke-width="4" d="M256.38-3.802 5.732-148.514c-3.64-2.101-9.52-2.101-13.135 0L-256.424-3.799c-3.609 2.098-3.59 5.503.049 7.604l250.65 144.712c3.632 2.098 9.512 2.098 13.122 0L256.417 3.802c3.615-2.1 3.596-5.506-.037-7.604z" fill="none" transform="matrix(.5 0 0 .5 701.415 564.014)" style="display:block"/><path stroke-linejoin="round" stroke="#7BE7F1" stroke-width="4" d="M188.418-3.807 5.95-109.154c-3.633-2.097-9.513-2.098-13.129.003L-188.46-3.802c-3.616 2.101-3.597 5.509.036 7.606L-5.956 109.151c3.64 2.1 9.52 2.1 13.136 0L188.461 3.801c3.615-2.101 3.596-5.507-.043-7.608z" fill="none" transform="matrix(.5 0 0 .5 526.112 458.547)" style="display:block"/><path stroke-linejoin="round" stroke="#7BE7F1" stroke-width="4" d="M303.641-3.805 5.564-175.899c-3.64-2.102-9.502-2.102-13.119 0L-303.694-3.801c-3.617 2.101-3.609 5.503.031 7.604L-5.587 175.898c3.641 2.102 9.525 2.102 13.142 0L303.695 3.801c3.616-2.101 3.586-5.504-.054-7.606z" fill="none" transform="matrix(.5 0 0 .5 361.917 586.647)" style="display:block"/><g opacity=".2"><path fill="#37B5F4" d="M34.451-3.803 6.455-19.967c-3.64-2.101-9.52-2.101-13.136 0L-34.489-3.806c-3.616 2.101-3.596 5.507.043 7.608l27.997 16.165c3.638 2.1 9.519 2.1 13.134 0L34.494 3.805c3.615-2.1 3.597-5.506-.043-7.608z" transform="matrix(.5 0 0 .5 796.31 621.7)" opacity="1" style="display:block"/></g><g opacity=".2"><path fill="#37B5F4" d="M71.543-3.804 6.33-41.454c-3.639-2.101-9.519-2.101-13.129-.004L-71.594-3.803c-3.615 2.102-3.59 5.504.049 7.604l65.213 37.651c3.64 2.101 9.514 2.105 13.129.004L71.593 3.801c3.609-2.097 3.59-5.503-.05-7.605z" transform="matrix(.5 0 0 .5 855.21 601.736)" opacity="1" style="display:block"/></g><g opacity=".2"><path fill="#37B5F4" d="M108.647-3.802 6.211-62.944c-3.639-2.1-9.519-2.1-13.128-.003l-101.77 59.142c-3.616 2.102-3.597 5.508.043 7.608L-6.209 62.945c3.64 2.101 9.513 2.097 13.129-.004L108.689 3.799c3.61-2.098 3.597-5.5-.042-7.601z" transform="matrix(.5 0 0 .5 160.642 636.211)" opacity="1" style="display:block"/></g><g opacity=".2"><path fill="#37B5F4" d="M144.105-3.803 6.101-83.481c-3.64-2.1-9.519-2.1-13.136.001L-144.142-3.802c-3.615 2.102-3.596 5.507.043 7.608L-6.094 83.483c3.633 2.098 9.512 2.098 13.128-.004L144.141 3.801c3.616-2.101 3.597-5.507-.036-7.604z" transform="matrix(.5 0 0 .5 563.524 645.795)" opacity="1" style="display:block"/></g><g opacity=".2"><path fill="#37B5F4" d="M256.381-3.801 5.733-148.513c-3.64-2.101-9.52-2.101-13.135 0L-256.423-3.798c-3.609 2.097-3.59 5.503.049 7.604l250.65 144.712c3.632 2.098 9.512 2.098 13.122 0L256.418 3.803c3.615-2.1 3.596-5.506-.037-7.604z" transform="matrix(.5 0 0 .5 701.415 547.482)" opacity="1" style="display:block"/></g><g opacity=".2"><path fill="#37B5F4" d="M188.419-3.808 5.951-109.156c-3.633-2.097-9.512-2.097-13.128.004L-188.458-3.803c-3.616 2.101-3.597 5.508.036 7.605L-5.955 109.15c3.64 2.101 9.52 2.101 13.136 0L188.462 3.8c3.615-2.101 3.596-5.507-.043-7.608z" transform="matrix(.5 0 0 .5 526.11 440.127)" opacity="1" style="display:block"/></g><g opacity=".2"><path fill="#37B5F4" d="M303.647-3.802 5.57-175.897c-3.64-2.102-9.502-2.102-13.119 0L-303.688-3.799c-3.617 2.101-3.609 5.504.031 7.605L-5.581 175.901c3.641 2.102 9.526 2.102 13.143 0L303.702 3.803c3.616-2.101 3.585-5.503-.055-7.605z" transform="matrix(.5 0 0 .5 361.913 565.748)" opacity="1" style="display:block"/></g><g clip-path="url(#S)" style="display:block" transform="matrix(.5 0 0 .5 0 .152)"><path fill="#337BF1" d="M19.643 18.896c0 5.438-4.401 9.841-9.821 9.841a9.705 9.705 0 0 1-6.366-2.348v.001s-.018-.017-.073-.054a1.499 1.499 0 0 1-.2-.182c-.073-.054-.182-.164-.327-.292-1.819-1.618-7.305-6.52-13.871-20.306-3.193-6.704-8.628-14.651-8.628-21.689v-.11c0-.2.017-.401.036-.601.291-6.311 3.062-11.893 9.447-11.893 4.383 0 8.801 3.381 10.838 6.891l.019.017c.072.164.491 1.129 1.164 2.639 0 .018.018.036.018.036 3.546 8.057 15.745 31.102 16.564 33.34 0 .018 0 .018.018.036a9.64 9.64 0 0 1 1.182 4.674z" transform="rotate(2.146 -18202.7 28861.724)" style="display:block"/><g style="display:block"><path fill="#337BF1" d="M1078.785 731.11c6.782.082 13.798-18.024 15.382-26.001 1.584-7.977 3.482-11.345-.105-12.667-3.588-1.32-7.369-2.23-11.19 6.25-3.819 8.483-14.235 16.108-14.34 21.225-.108 5.117 1.448 11.088 10.253 11.194z"/><path fill="#F4CCB8" d="M1082.038 683.011c7.321 1.413 10.867 3.93 12.472 5.762 1.607 1.831 3.019 3.393 1.284 5.672-1.734 2.279-1.67 4.243-5.08 4.453-3.409.212-6.584-.888-9.534-2.676-2.949-1.788.19-5.598-1.355-7.694-3.115-4.226 2.213-5.517 2.213-5.517z"/></g><g style="display:block"><path fill="#246DD7" d="M1047.212 746.548c6.72-4.94 20.896-7.183 24.486 2.737 3.591 9.92 2.987 50.381 2.375 60.576-.612 10.196-1.124 42.592-1.949 48.589s-9.138 9.461-16.878 8.39c-5.027-.697-2.59-9.388-3.22-30.992-.42-14.386-1.503-24.519-1.503-24.519s-2.276-27.268-6.068-39.926c-2.686-8.966-3.613-20.171 2.757-24.855z"/><path fill="#337BF1" d="M1026.09 747.001c7.121-4.599 29.645-5.048 32.38 5.509 2.733 10.557-6.546 54.718-9.48 68.947-2.146 10.402-2.95 45.498-6.588 58.205-1.733 6.05-10.379 10.623-16.312 5.4-5.934-5.223-5.585-14.504-4.508-36.228.742-14.948 2.034-31.997 2.034-31.997s-.767-24.489-2.96-37.991c-2.659-16.363-1.318-27.485 5.434-31.845z"/><path fill="#22283E" d="M1019.566 746.584v11.684s4.53 3.753 14.308 5.08c8.528 1.158 18.386.043 25.768-1.697 7.756-1.827 13.348-6.283 13.348-6.283v-12.592s-11.676 2.722-27.038 3.088c-15.363.365-26.386.72-26.386.72z"/><path fill="#ECCC45" d="M1062.271 754.209c-5.256 1.931-11.886 3.51-19.092 3.324-13.724-.353-22.099-2.618-23.158-7.688-.39-1.895-.465-4.365-.409-7.243.018-2.118.093-4.457.13-6.965.037-2.116.055-4.364-.019-6.685-.037-1.096-.093-2.21-.167-3.325a24.295 24.295 0 0 0-.595-3.974c-1.837-7.874-6.834-13.873-6.59-27.207.314-16.194 5.588-15.86 20.204-23.994 1.392-.78 3.046-1.263 4.846-1.541 5.423 4.773 14.357 13.148 16.436 18.33.41 1.021.817 2.247 1.245 3.64.148.482.297.984.445 1.504 0 .055.02.111.037.148l.28 1.059c.946 3.584 1.875 7.819 2.674 12.071.074.427.167.855.241 1.282.074.427.148.854.222 1.263.075.427.15.854.223 1.281.261 1.449.483 2.86.688 4.234.092.632.185 1.263.278 1.876.335 2.414.613 4.643.78 6.537l.056.687c.018.335.056.706.074 1.096.037.39.056.798.074 1.226.037.39.056.798.075 1.207.055 1.003.111 2.08.167 3.25.02.427.038.854.056 1.3.02.501.056 1.021.074 1.56.037 1.114.093 2.247.13 3.435.056 1.208.093 2.471.13 3.715.056 1.244.111 2.507.15 3.751 0 .186.017.371.017.539l.111 3.769c.075 2.341.131 4.569.187 6.538z"/><path fill="#E1A233" d="M1072.542 749.009c-1.876 1.355-5.517 3.436-10.272 5.2-.092-3.157-.185-6.946-.315-10.846-.093-2.488-.184-5.033-.277-7.465a433.55 433.55 0 0 0-.26-6.296c-.13-2.749-.26-5.107-.39-6.779-.019-.223-.039-.445-.057-.687-.855-9.471-4.16-27.523-7.114-34.895-2.079-5.182-11.01-13.557-16.434-18.33 7.076-1.04 16.435 1.3 21.042 2.99 5.794 2.117 14.504 17.624 14.374 33.893-.037 3.918.092 8.078.26 12.182.091 2.452.222 4.885.334 7.243.112 2.21.222 4.346.315 6.389.111 2.637.204 5.107.223 7.317.074 5.404-.24 9.211-1.429 10.084z"/><path fill="#FFF" d="M1073.971 738.925c-1.15.668-2.47 1.318-3.77 1.783-3.1 1.058-5.794 1.931-8.246 2.655-8.338 2.489-13.798 3.194-22.173 3.603-7.8.39-16.139-2.637-20.169-4.364.018-2.117.092-4.457.13-6.965 4.643 1.282 14.411 3.77 20.04 3.436 6.87-.408 15.394-1.708 21.894-3.175 3.194-.724 5.905-1.486 7.69-2.21a39.327 39.327 0 0 0 4.381-2.08c.112 2.637.204 5.107.223 7.317zM1073.432 725.219c-1.096.613-2.303 1.208-3.528 1.634a178.865 178.865 0 0 1-8.487 2.749c-8.209 2.414-13.63 3.12-21.915 3.529-7.558.371-15.618-2.452-19.778-4.179-.037-1.096-.093-2.21-.167-3.324a24.263 24.263 0 0 0-.595-3.974c4.421 1.244 14.691 3.918 20.54 3.565 6.723-.408 15.025-1.653 21.47-3.083 3.38-.761 6.24-1.541 8.097-2.303a44.151 44.151 0 0 0 4.03-1.857c.092 2.452.222 4.885.333 7.243z"/><path fill="#ECCC45" d="M1031.24 693.035c-.688-1.542-1.115-2.524-1.189-2.692.52.836.91 1.745 1.188 2.692zM1054.992 701.838c-.409.334-.8.725-1.134 1.17.612-.631 1.04-1.058 1.134-1.17z"/><path fill="#337BF1" d="M1035.085 666.142c-1.509.232-4.877 4.643-4.877 6.082 0 4.133 7.108 14.463 7.108 14.463l10.331-8.183 12.245 2.698s-4.686-6.72-6.497-9.227c-2.88-3.984-7.866-7.44-18.31-5.833z"/><path fill="#D2AA9B" d="m1036.522 666.037 1.345-15.605s2.38-3.968 8.813-3.948c6.433.021 10.728 2.358 11.635 6 .907 3.641-3.388 17.948-5.202 20.868-1.816 2.92-2.844 4.539-4.933 4.713-2.429.202-5.544.309-8.756-3.176-3.154-3.422-3.188-6.798-2.902-8.852z"/><path fill="#22283E" d="M1023.397 879.192s4.616-4.767 8.981-5.904c4.365-1.138 6.83-.948 9.013 1.327 2.184 2.274 8.257 12.51 11.293 14.974 3.036 2.464 2.847 6.066 2.087 6.824-.759.758-3.416 5.307-11.386 4.36-7.97-.948-10.627-9.478-14.612-10.994-3.985-1.517-4.49-3.033-5.376-5.497-.887-2.465 0-5.09 0-5.09zM1054.791 863.85s1.61.902 8.308-4.547c3.17-2.578 7.788-2.271 9.77-.259 1.98 2.012 6.207 6.997 11.757 9.855 3.136 1.616 3.364 5.237 2.759 6.542-.62 1.338-2.94 4.508-10.17 3.669-7.23-.838-12.846-5.565-17.346-6.695-3.746-.94-4.49-1.773-5.295-3.952-.804-2.179.217-4.613.217-4.613z"/></g><g style="display:block"><path fill="#F4CCB8" d="M1039.805 635.386c-4.056 4.127-4.477 11.313-3.891 15.563.585 4.249 2.872 14.473 6.054 17.095 3.183 2.623 6.962 7.198 11.364 7.494 4.403.296 7.14-4.67 9.138-10.022 1.997-5.351 6.487-17.212 4.554-23.128-1.936-5.917-5.424-11.724-13.225-12.352-7.8-.627-13.994 5.35-13.994 5.35z"/><path fill="#22283E" d="M1038.934 654.653c-.004-7.826 5.691 8.433 8.804-7.082.695-3.46-2.536-11.105-8.302-11.256-3.479-.09-6.54 2.637-5.818 9.941.72 7.304 1.422 15.108 3.985 15.701.754.176 1.334-2.126 1.33-7.304z"/><path fill="#F4CCB8" d="M1041.757 652.024c-.28-.197.289-5.3-2.827-5.196-3.117.103-2.461 5.156-2.306 5.918.155.764.976 5.707 2.7 5.19 1.722-.517 2.433-5.912 2.433-5.912z"/><path fill="#37B5F4" d="M1039.668 631.93s-3.871 1.287-6.435 3.693c-1.27 1.192-2.667 5.23-1.073 6.066 1.594.837.948.01 2.692 1.348 1.742 1.337 10.182 8.69 12.687 10.637 2.506 1.948 6.724 4.515 9.632 4.634 2.91.12 7.067-.094 11.053-2.476 3.985-2.384 5.283-4.374 4.711-7.404-.572-3.032-2.921-6.315-7.272-9.926-4.35-3.611-16.017-8.37-25.995-6.571z"/><path fill="#4BF1E1" d="M1050.647 622.877c-3.717-.236-8.928 1.456-12.053 5.565-3.125 4.108-5.167 6.79-4.958 9.778.21 2.989 6.45 8.889 9.953 10.983 3.502 2.096 11.245 4.738 16.876 3.67 5.63-1.07 8.097-3.033 8.884-4.876.788-1.843 1.364-7.182-.485-11.844-1.85-4.662-6.818-12.55-18.217-13.276z"/><path fill="#37B5F4" d="M1042.158 625.2s.417-1.35 3.758-2.699c2.383-.96 5.63-.736 6.94-.32 1.31.417 8.38 2.414 11.77 8.139 3.983 6.723 4.82 12.269 4.466 15.483-.355 3.214-3.15 4.774-5.122 4.977-1.973.205-4.572-1.27-4.905-4.603-.332-3.331-1.241-11.75-6.668-16.006-5.425-4.255-10.239-4.971-10.239-4.971z"/><path fill="#37B5F4" d="M1046.973 641.89c1.35-5.212 4.276-5.929 5.61-4.99 1.334.938 3.735 7.479 3.278 10.067-.458 2.588-5.033 1.417-6.88.548-1.849-.87-2.71-2.915-2.008-5.626z"/></g><path fill="#337BF1" d="M18.166 19.592c0 5.438-4.402 9.84-9.822 9.84a9.7 9.7 0 0 1-6.365-2.347l-.001.001s-.018-.018-.073-.055c-.054-.036-.109-.091-.2-.182-.073-.054-.182-.164-.327-.291-1.819-1.619-5.274-7.908-12.405-21.41-4.328-8.193-7.139-14.581-7.139-21.62v-.109c0-.2.019-.4.036-.6.291-6.311 2.797-12.251 9.182-12.251 4.383 0 7.962 4.336 9.999 7.846l.017.018c.074.164.492 1.128 1.164 2.637 0 .019.019.037.019.037 3.547 8.057 13.895 31.538 14.714 33.776 0 .018 0 .018.018.036a9.64 9.64 0 0 1 1.183 4.674z" transform="rotate(.477 -84992.166 123879.4)" style="display:block"/><path fill="#337BF1" d="M20.808-12.095a8.776 8.776 0 0 1-2.692 6.348S11.056 1.816 6.6 7.87C2.866 12.942-1.254 18.661-6.384 19.825h-.037a9.559 9.559 0 0 1-4.546 1.128 9.836 9.836 0 0 1-9.841-9.84A9.851 9.851 0 0 1-18.17 4.42C-16.115 1.31-7.22-5.002-5.383-6.839c1.455-1.455 7.838-8.075 10.458-10.804.6-.618 1.018-1.036 1.109-1.145l.037-.037a8.668 8.668 0 0 1 5.729-2.128 8.858 8.858 0 0 1 8.858 8.858z" transform="rotate(1.669 -24216.703 36329.296)" style="display:block"/><g style="display:block"><path fill="#22283E" d="m1069.32 682.628-2.913 35.796c-.12 1.492 1.483 2.508 2.78 1.759l18.41-10.633c.501-.29.84-.799.913-1.374l4.298-33.691c.181-1.427-1.257-2.51-2.578-1.94l-19.793 8.528c-.632.272-1.061.87-1.117 1.555z"/><path fill="#F4CCB8" d="M1062.353 697.31c-2.015 1.244-4.145 3.888-3.432 7.345.711 3.456 2.137 7.66 4.458 9.043 2.323 1.383 8.298-2.104 9.868-3.685 1.57-1.58 2.344-13.765 1.884-16.42-.46-2.655-12.11 3.305-12.778 3.717z"/><path stroke-linejoin="round" stroke="#4BF1E1" stroke-width=".929" d="M1083.179 696.933c-.634 2.649-2.091 4.57-3.255 4.291-1.164-.278-1.594-2.65-.961-5.298.633-2.648 2.09-4.568 3.254-4.29 1.164.279 1.595 2.65.962 5.297z" fill="none"/></g></g><g style="display:block"><path stroke-linejoin="round" stroke="#7CE7F2" stroke-opacity=".4" stroke-width="2.5" d="M299.798 524.067s-8.36-10.97-6.79-26.64c1.565-15.665 11.075-21.12 17.275-23.155 6.2-2.035 11.515-2.61 19.84-1.915 8.325.695 11.285 21.22 3.8 34.81-7.49 13.59-24.8 22.995-34.125 16.9zm37.585-12.445c-9.965 17.265-26.18 26.56-36.215 20.765-10.04-5.795-10.095-24.485-.13-41.745 9.965-17.265 26.185-26.56 36.22-20.765 10.035 5.795 10.095 24.485.125 41.745zm-36.215 20.765 76.29 44.07 36.51-62.29-76.29-44.07-36.51 62.29zm-9.475 20.76 67.27 38.96 20.45-12.035-67.275-38.86-20.445 11.935zm8.705-.295 58.375 33.455 18.69-11-58.375-33.36-18.69 10.905zm58.565 39.255v7.66l-67.275-39.025v-7.595l67.275 38.96zm20.45-66.48v7.66l-67.275-39.025v-7.6l67.275 38.965zm0 54.445v7.765l-20.45 11.93v-7.66l20.45-12.035zm31.58-39.08c.715 0 1.36.165 1.925.49 2.935 1.695 2.915 7.24-.045 12.36-2.32 4.015-5.835 6.715-8.755 6.715-.715 0-1.36-.165-1.925-.49-1.4-.81-2.175-2.525-2.185-4.835-.005-2.355.785-5.03 2.23-7.53 2.32-4.015 5.835-6.71 8.755-6.71zm0-.235c-2.915 0-6.54 2.645-8.955 6.83-3.03 5.245-3.01 10.92.035 12.68.615.355 1.305.525 2.045.525 2.915 0 6.54-2.645 8.955-6.83 3.03-5.245 3.01-10.92-.035-12.68-.615-.355-1.305-.525-2.045-.525zm-51.77 26.685 6.395 3.955-8.55 12.645-6.53-3.755 8.685-12.845zm-55.515-68.265 67.27 39.07 8.435-4.96-67.275-39.03-8.43 4.92zm8.005-23.445 47.25 27.17v10.865l-41.085-23.65-6.165-14.385zm0 0 47.25 27.17 17.29-10.525-46.87-27.045-17.67 10.4zm71.94 37.4v14.96l-24.69-14.325v-14.935l24.69 14.3zm25.605-15.07v15.09l-25.605 14.94v-14.96l25.605-15.07zm-50.295.77 25.605-14.94 24.69 14.17-25.6 15.07-24.695-14.3zm-47.25-23.1-5.205 7.615 11.37 6.77-6.165-14.385zm35.765 39.025-8.545 5.04 8.545-12.645v7.605zm14.945 8.76-8.55 5.04 8.55-12.645v7.605zm-34.665-20.25-8.545 5.04 8.545-12.645v7.605zm-5.075-10.57 5.075 2.965-8.545 12.64-5.08-2.96 8.55-12.645zm64.88 71.24c-9.24 8.095-19.49 11.195-26.76 7-6.12-3.54-8.82-11.48-8.09-21.09.44-5.96 2.205-12.56 5.285-19.145l3.13 1.82c-6.985 15.56-5.88 31.09 3.22 36.345 6.355 3.665 15.11 1.445 23.215-4.93zm-52.81-64.22 12.725 7.435-8.545 12.645-12.73-7.435 8.55-12.645zm-3.81 51.645 12.725 7.43-8.55 12.645-12.81-7.31 8.635-12.765zm25.085-39.405 6.395 3.955-8.55 12.64-6.395-3.955 8.55-12.64zm-44.725 28.205 6.395 3.955-8.455 12.505-6.485-3.82 8.545-12.64zm49.5 30.775-48.21-27.84c-9.945-5.735-10.875-23.12-2.74-40.355l38.98 22.64 9.165 5.32c-3.08 6.585-4.845 13.185-5.285 19.145-.73 9.61 1.97 17.55 8.09 21.09zm4.905-43.8 1.92 1.075v64.6l-1.92-1.075v-64.6zm53.955-29.55v64.865l-52.035 30.36v-64.6l52.035-30.625zm-5.99 58.105c-9.965 17.26-26.18 26.56-36.215 20.765-10.04-5.795-10.095-24.485-.13-41.75 9.965-17.26 26.185-26.555 36.22-20.765 10.035 5.795 10.095 24.49.125 41.75zm5.99-58.105-1.92-1.08-52.035 30.63 1.92 1.075 52.035-30.625zm-42.205 78.87 9.65 5.575 36.095-62.515-9.235-5.35-36.51 62.29zm45.87-15.19c-9.965 17.26-26.18 26.56-36.215 20.765-10.04-5.795-10.095-24.49-.13-41.75s26.18-26.56 36.22-20.765c10.035 5.795 10.09 24.485.125 41.75zm-8.855-30.41c1.475 0 2.815.345 3.99 1.025 6.01 3.47 6.01 14.77-.005 25.185-4.705 8.15-11.865 13.625-17.82 13.625-1.475 0-2.815-.345-3.99-1.025-6.01-3.47-6.01-14.77.005-25.185 4.705-8.15 11.865-13.625 17.82-13.625zm0-.23c-5.865 0-13.16 5.32-18.02 13.74-6.09 10.545-6.055 21.96.08 25.5 1.235.715 2.625 1.055 4.105 1.055 5.865 0 13.16-5.32 18.02-13.74 6.09-10.545 6.055-21.96-.08-25.505-1.235-.71-2.625-1.05-4.105-1.05zm4.185 26.555c-6.09 10.55-15.995 16.23-22.125 12.69-6.135-3.545-6.17-14.96-.08-25.505 6.09-10.55 15.995-16.23 22.125-12.685 6.135 3.54 6.17 14.955.08 25.5zm-6.5-3.75c-2.525 4.37-6.63 6.725-9.175 5.26-2.54-1.47-2.555-6.205-.03-10.575 2.525-4.37 6.63-6.725 9.175-5.26 2.54 1.47 2.555 6.205.03 10.575zm-2.205-1.275c-1.315 2.28-3.455 3.505-4.78 2.74-1.325-.765-1.33-3.23-.015-5.51 1.315-2.275 3.455-3.505 4.78-2.74 1.325.765 1.33 3.235.015 5.51zm-35.825-19.78c-.41 1.51-1.455 2.535-2.335 2.295-.875-.24-1.25-1.655-.835-3.16.41-1.51 1.455-2.535 2.33-2.295.88.24 1.255 1.655.84 3.16zm0 52.915c-.41 1.51-1.455 2.535-2.335 2.295-.875-.24-1.25-1.655-.835-3.16.41-1.51 1.455-2.535 2.33-2.295.88.24 1.255 1.655.84 3.16zm43.18-79.355c-.41 1.51-1.455 2.535-2.33 2.295-.875-.24-1.25-1.655-.84-3.16.415-1.51 1.46-2.535 2.335-2.295.875.24 1.25 1.655.835 3.16zm-94.345-27.03 12.86-7.505 6.47 3.73-12.86 7.57-6.47-3.795zm8.425 4.91 12.865-7.505 6.47 3.73-12.86 7.57-6.475-3.795zm16.09 8.895 12.86-7.505 6.475 3.73-12.86 7.57-6.475-3.795zm62.46 53.935 15.645 9.035-4.765 8.25-15.645-9.035 4.765-8.25zm15.66 14.545c-1.315 2.28-3.455 3.505-4.78 2.74-1.325-.765-1.33-3.23-.015-5.51 1.315-2.275 3.455-3.505 4.78-2.74 1.325.765 1.33 3.23.015 5.51zm-.015-5.51 2.17 1.255-4.76 8.25-2.175-1.255 4.765-8.25zm2.19 6.765c-1.315 2.275-3.455 3.505-4.78 2.74-1.325-.765-1.335-3.23-.02-5.51s3.455-3.505 4.78-2.74c1.325.765 1.335 3.23.02 5.51zm.695.4c-.855 1.48-2.245 2.28-3.11 1.78-.86-.495-.865-2.1-.01-3.58s2.245-2.275 3.11-1.78c.86.495.865 2.1.01 3.58zm-20.824-27.881v6.676m1.827-7.721v6.677m-3.833-4.705v6.677m2.006 17.453v6.676m1.827-7.721v6.677m-3.833-4.705v6.677m-94.55-57.37 38.825 22.545m-40.465-18.115 38.825 22.55m-39.925-17.81 38.825 22.55m-39.325-17.96 38.825 22.545m-38.325-17.24 38.825 22.55m-37.725-17.335 38.825 22.545m-37.185-17.58 38.825 22.545" fill="none"/><path fill="#145284" d="M299.796 524.067s-8.357-10.968-6.79-26.638c1.567-15.67 11.077-21.121 17.276-23.156 6.2-2.035 11.515-2.612 19.84-1.915 8.325.696 11.286 21.217 3.8 34.809-7.488 13.592-24.798 22.994-34.126 16.9z"/><path fill="#246DD7" d="M337.385 511.624c-9.967 17.262-26.182 26.558-36.219 20.764-10.036-5.795-10.093-24.485-.127-41.748 9.966-17.262 26.182-26.558 36.218-20.763 10.037 5.794 10.094 24.485.128 41.747z"/><path fill="#246DD7" d="m301.166 532.388 76.291 44.068 36.513-62.29-76.29-44.069-36.514 62.29z"/><path fill="#337BF1" d="m291.69 553.145 67.274 38.963 20.447-12.035-67.274-38.86-20.447 11.932z"/><path fill="#145284" d="m300.398 552.853 58.376 33.454 18.69-11-58.376-33.361-18.69 10.907z"/><path fill="#246DD7" d="M358.965 592.107v7.66l-67.275-39.026v-7.596l67.275 38.962z"/><path fill="#4389EE" d="M379.412 525.626v7.66l-67.275-39.027v-7.596l67.275 38.963z"/><path fill="#1D64BB" d="M379.412 580.073v7.762l-20.447 11.933v-7.661l20.447-12.034z"/><path d="M410.995 540.99c.711 0 1.359.166 1.925.493 2.932 1.693 2.91 7.238-.047 12.361-2.318 4.015-5.837 6.713-8.757 6.713-.711 0-1.36-.165-1.925-.492-1.4-.808-2.174-2.525-2.181-4.833-.008-2.354.784-5.028 2.228-7.528 2.318-4.016 5.837-6.713 8.757-6.713zm0-.231c-2.916 0-6.542 2.643-8.958 6.828-3.027 5.243-3.01 10.919.038 12.679a4.033 4.033 0 0 0 2.041.524c2.916 0 6.542-2.644 8.958-6.83 3.027-5.242 3.01-10.919-.038-12.678-.615-.355-1.305-.523-2.041-.523z"/><path fill="#246DD7" d="m359.223 567.443 6.395 3.955-8.548 12.643-6.531-3.753 8.684-12.845z"/><path fill="#337BF1" d="m303.706 499.176 67.274 39.069 8.432-4.958-67.275-39.032-8.431 4.921zM311.714 475.729l47.251 27.17v10.865l-41.085-23.649-6.166-14.386z"/><path fill="#4389EE" d="m311.714 475.729 47.251 27.17 17.288-10.52-46.869-27.05-17.67 10.4z"/><path fill="#337BF1" d="M383.655 513.132v14.96l-24.69-14.327v-14.932l24.69 14.299z"/><path fill="#145284" d="M409.26 498.063v15.088l-25.605 14.941v-14.96l25.604-15.069z"/><path fill="#4389EE" d="m358.965 498.833 25.603-14.941 24.691 14.172-25.604 15.069-24.69-14.3z"/><path fill="#337BF1" d="m311.714 475.729-5.208 7.62 11.374 6.766-6.166-14.386z"/><path fill="#1D64BB" d="m347.479 514.759-8.548 5.036 8.548-12.643v7.607zM362.421 523.518l-8.548 5.036 8.548-12.643v7.607zM327.76 503.269l-8.548 5.036 8.548-12.643v7.607z"/><path fill="#246DD7" d="m322.681 492.697 5.078 2.965-8.547 12.642-5.079-2.964 8.548-12.643z"/><path fill="#5ADCE1" d="M387.564 563.934c-9.239 8.097-19.49 11.199-26.76 7.002-6.12-3.537-8.823-11.477-8.089-21.088.437-5.961 2.201-12.563 5.284-19.147l3.129 1.82c-6.983 15.563-5.878 31.089 3.222 36.344 6.352 3.668 15.108 1.449 23.214-4.931z"/><path fill="#246DD7" d="m334.752 499.718 12.727 7.435-8.548 12.642-12.726-7.434 8.547-12.643zM330.941 551.359l12.726 7.435-8.547 12.642-12.81-7.31 8.631-12.767zM356.027 511.956l6.394 3.956-8.548 12.642-6.394-3.955 8.548-12.643zM311.303 540.16l6.395 3.956-8.456 12.506-6.486-3.82 8.547-12.642z"/><path fill="#7BE7F1" d="m360.803 570.936-48.21-27.838c-9.946-5.738-10.874-23.121-2.74-40.355l38.981 22.638 9.164 5.32c-3.082 6.584-4.847 13.186-5.283 19.147-.734 9.61 1.97 17.55 8.088 21.088z"/><path fill="#4389EE" d="m365.706 527.135 1.921 1.079v64.6l-1.921-1.079v-64.6z"/><path fill="#1D64BB" d="M419.665 497.587v64.866l-52.038 30.361v-64.6l52.038-30.627z"/><path fill="#337BF1" d="M413.675 555.692c-9.966 17.262-26.181 26.559-36.218 20.764-10.037-5.795-10.094-24.486-.128-41.748 9.966-17.262 26.182-26.558 36.22-20.764 10.036 5.795 10.093 24.486.126 41.748zM419.665 497.586l-1.921-1.078-52.038 30.627 1.922 1.079 52.037-30.628z"/><path fill="#337BF1" d="m377.457 576.456 9.653 5.574 36.091-62.512-9.23-5.352-36.514 62.29z"/><path fill="#1D64BB" d="M423.329 561.266c-9.967 17.262-26.182 26.558-36.219 20.764-10.036-5.795-10.094-24.486-.127-41.749 9.966-17.262 26.182-26.558 36.218-20.763 10.037 5.795 10.094 24.486.128 41.748z"/><path d="M414.474 530.858c1.473 0 2.816.344 3.99 1.022 6.01 3.47 6.008 14.77-.008 25.188-4.703 8.147-11.865 13.621-17.82 13.621-1.473 0-2.815-.344-3.99-1.021-6.01-3.471-6.007-14.77.008-25.188 4.704-8.147 11.865-13.621 17.82-13.622zm0-.232c-5.865 0-13.16 5.318-18.021 13.738-6.089 10.545-6.054 21.964.078 25.505 1.236.713 2.625 1.052 4.106 1.052 5.864 0 13.159-5.318 18.02-13.737 6.089-10.546 6.054-21.965-.077-25.505-1.236-.714-2.626-1.053-4.106-1.053z"/><path fill="#5ADCE1" d="M418.658 557.184c-6.089 10.546-15.996 16.225-22.127 12.685-6.132-3.54-6.167-14.959-.078-25.505 6.088-10.545 15.995-16.225 22.127-12.685 6.131 3.54 6.166 14.959.078 25.505z"/><path fill="#1D64BB" d="M412.158 553.43c-2.524 4.372-6.631 6.726-9.173 5.259-2.541-1.468-2.556-6.201-.032-10.573 2.524-4.371 6.63-6.725 9.173-5.258 2.541 1.468 2.556 6.201.032 10.573z"/><path fill="#145284" d="M409.954 552.158c-1.315 2.279-3.456 3.506-4.78 2.74-1.325-.764-1.333-3.231-.017-5.51 1.315-2.278 3.455-3.504 4.78-2.74 1.325.765 1.332 3.232.017 5.51z"/><path stroke-miterlimit="10" stroke="#7BE7F1" stroke-width=".6965" d="M374.128 532.378c-.413 1.507-1.458 2.534-2.334 2.294-.876-.24-1.251-1.656-.838-3.162.412-1.507 1.457-2.534 2.333-2.293.876.239 1.252 1.655.84 3.161zM374.128 585.293c-.413 1.507-1.458 2.534-2.334 2.294-.876-.24-1.251-1.656-.838-3.162.412-1.507 1.457-2.534 2.333-2.293.876.239 1.252 1.655.84 3.161zM417.31 505.939c-.413 1.506-1.457 2.533-2.333 2.294-.876-.24-1.251-1.656-.839-3.163.413-1.506 1.458-2.533 2.334-2.293.875.24 1.251 1.655.838 3.162zM322.961 478.907l12.861-7.505 6.472 3.73-12.861 7.569-6.472-3.794zM331.39 483.818l12.861-7.505 6.472 3.729-12.862 7.57-6.471-3.794zM347.479 492.714l12.861-7.506 6.472 3.73-12.861 7.569-6.472-3.793z" fill="none"/><path fill="#145284" d="m409.936 546.649 15.646 9.033-4.763 8.25-15.646-9.033 4.763-8.25z"/><path fill="#7BE7F1" d="M425.6 561.192c-1.315 2.278-3.456 3.505-4.78 2.74-1.325-.765-1.333-3.231-.018-5.51 1.316-2.278 3.456-3.505 4.78-2.74 1.325.765 1.333 3.231.018 5.51z"/><path fill="#7BE7F1" d="m425.583 555.682 2.172 1.255-4.763 8.25-2.172-1.255 4.763-8.25z"/><path fill="#5ADCE1" d="M427.772 562.446c-1.315 2.278-3.456 3.505-4.78 2.74-1.325-.764-1.333-3.231-.017-5.51 1.315-2.278 3.455-3.505 4.78-2.74 1.324.765 1.332 3.232.017 5.51z"/><path fill="#7BE7F1" d="M428.467 562.847c-.855 1.48-2.246 2.278-3.107 1.781-.861-.497-.866-2.1-.011-3.581.855-1.48 2.246-2.278 3.107-1.781.861.497.866 2.1.011 3.581z"/><path stroke-linecap="round" stroke-miterlimit="10" stroke="#145284" stroke-width=".9285" d="M407.644 534.966v6.676M409.471 533.921v6.677M405.638 535.893v6.677M407.644 560.023v6.676M409.471 558.978v6.677M405.638 560.95v6.677M311.088 510.257l38.825 22.547M309.449 514.688l38.825 22.547M308.347 519.428l38.825 22.547M307.848 524.014l38.825 22.547M308.347 529.324l38.825 22.547M309.449 534.536l38.825 22.547M311.088 539.5l38.825 22.548" fill="none"/></g><g style="display:block"><path stroke-linejoin="round" stroke="#7CE7F2" stroke-opacity=".4" stroke-width="2.5" d="M578.361 581.793s5.48-1.06 6.64 2.185c1.16 3.245-2.225 6.83-4.19 8.81-1.96 1.98-2.89 5.11-1.96 7.955.93 2.845 4.57 6.95 3.85 9.95-.715 2.995-5.01 5.72-5.01 5.72m-2.44-36.455s7.43-1.04 11.26 1.835 4.76 6.01 4.18 9.49c-.585 3.485-7.2 18.35-16.135 23.335m-3.825-37.215c1.405 3.2.9 6.515-1.13 7.405-2.03.89-4.81-.98-6.215-4.18-1.405-3.195-.9-6.51 1.125-7.405 2.03-.89 4.815.98 6.22 4.18zm-23.65 5.745 17.435-9.925 5.085 11.585-17.435 9.925-5.085-11.585zm23.47-1.355c0 1.825-1.25 3.31-2.785 3.31-1.54 0-2.785-1.485-2.785-3.31s1.245-3.31 2.785-3.31c1.535 0 2.785 1.485 2.785 3.31zm-17.185 30.35c-.815 2.98-2.88 5.01-4.615 4.535-1.73-.475-2.475-3.275-1.655-6.255.815-2.975 2.88-5.005 4.61-4.53 1.735.475 2.475 3.27 1.66 6.25zm-1.455-.4c-.44 1.6-1.545 2.685-2.475 2.435-.925-.255-1.325-1.755-.89-3.355.44-1.595 1.545-2.685 2.475-2.43.93.255 1.325 1.755.89 3.35zm-.77-.79c-.815 2.98-2.88 5.01-4.61 4.535-1.735-.475-2.475-3.27-1.66-6.25.815-2.98 2.885-5.01 4.615-4.535 1.73.475 2.475 3.275 1.655 6.25zm-1.375-6.15 2.255 1.205-3.27 10.67-2.22-1.19 3.235-10.685zm-24.22 36.655 37.52-20.11 40.13 21.24-38.855 21.705-38.795-22.835zm0 4.18 38.795 22.835v-4.18l-38.795-22.835v4.18zm77.65 1.13-38.855 21.705v-4.18l38.855-21.705v4.18zm-36.825 14.03c0 .595-.92 1.07-2.06 1.07-1.135 0-2.06-.475-2.06-1.07 0-.59.925-1.07 2.06-1.07 1.14 0 2.06.48 2.06 1.07zm-32.82-19.34c0 .59-.925 1.07-2.065 1.07-1.135 0-2.06-.48-2.06-1.07 0-.59.925-1.07 2.06-1.07 1.14 0 2.065.48 2.065 1.07zm65.985 1.07c0 .59-.925 1.07-2.065 1.07-1.135 0-2.06-.48-2.06-1.07 0-.59.925-1.07 2.06-1.07 1.14 0 2.065.48 2.065 1.07zm-12.165-1.465c0 6.565-10.25 11.885-22.89 11.885s-22.89-5.32-22.89-11.885c0-6.565 10.25-11.885 22.89-11.885s22.89 5.32 22.89 11.885zm-45.78 0h45.78v-5.07h-45.78v5.07zm45.78-5.07c0 6.56-10.25 11.885-22.89 11.885s-22.89-5.325-22.89-11.885c0-6.565 10.25-11.885 22.89-11.885s22.89 5.32 22.89 11.885zm-2.95-.965c0 5.715-8.925 10.345-19.94 10.345s-19.94-4.63-19.94-10.345c0-5.715 8.925-10.345 19.94-10.345s19.94 4.63 19.94 10.345zm-39.88 0h39.88v-4.31h-39.88v4.31zm39.88-4.31c0 5.715-8.925 10.345-19.94 10.345s-19.94-4.63-19.94-10.345c0-5.715 8.925-10.345 19.94-10.345s19.94 4.63 19.94 10.345zm-37.025-.23 15.67 8.445v-11.61l-15.67-8.445v11.61zm34.065-2.465-18.395 10.91v-11.61l18.395-10.91v11.61zm0-11.61-15.67-8.445-18.395 10.91 15.67 8.445 18.395-10.91zm-3.1-36.37-2.59 7.93-20.735 33.895-5.3-2.48-.3-.14c-1.78-.935-2.47-4.12-1.55-7.5.3-1.1.745-2.09 1.275-2.925v-.01l.23-.355 18.57-28.265.455-.685.075-.105v-.01c1.19-1.605 2.705-2.47 4.05-2.095.25.075.49.175.705.335l5.115 2.41zm2.045 7.71a10.742 10.742 0 0 1-1.415 3.145l-.08.13-18.72 28.49c-1.235 1.98-2.935 3.095-4.44 2.685-2.135-.585-3.045-4.03-2.04-7.71.295-1.095.74-2.085 1.27-2.925v-.01l.23-.35 18.575-28.265.455-.69.075-.1v-.01c1.185-1.605 2.7-2.47 4.045-2.1 2.14.585 3.045 4.03 2.045 7.71zm-1.57-1.085c-.435 1.595-1.545 2.685-2.47 2.43-.93-.255-1.33-1.755-.89-3.355.435-1.595 1.545-2.68 2.475-2.43.925.255 1.325 1.755.885 3.355zm-25.54.66c1.405 3.195.9 6.51-1.13 7.405-2.03.89-4.81-.98-6.215-4.18-1.405-3.2-.9-6.515 1.125-7.405 2.03-.89 4.815.98 6.22 4.18zm-1.95.975c.655 1.5.42 3.05-.53 3.47-.95.42-2.255-.46-2.915-1.96-.66-1.5-.42-3.05.53-3.47.95-.415 2.255.46 2.915 1.96zm8.26 39.53c.09.555-.15 1.055-.535 1.12-.385.06-.765-.345-.855-.905-.085-.555.155-1.06.535-1.12.385-.06.77.345.855.905zm0 6.44c.09.56-.15 1.06-.535 1.12-.385.06-.765-.345-.855-.9-.085-.56.155-1.06.535-1.12.385-.06.77.34.855.9zm-8.315-10.715c.085.56-.155 1.06-.54 1.12-.385.06-.765-.345-.855-.9-.085-.56.155-1.06.54-1.12.385-.065.765.34.855.9zm0 6.035c.085.555-.155 1.06-.54 1.12-.385.06-.765-.345-.855-.9-.085-.56.155-1.06.54-1.125.385-.06.765.345.855.905zm25.88-6.165-8.535 5.045v-1.785l8.535-5.045v1.785zm0 4.4-8.535 5.045v-1.785l8.535-5.045v1.785zm-11.315-20.695-4.24-2.74 5.5-8.5 4.24 2.74-5.5 8.5zm6.135-9.485-4.24-2.74.64-.99 4.24 2.74-.64.99zm1.275-1.975-4.235-2.74.635-.99 4.24 2.74-.64.99zm-11.48 20.69c-.815 2.975-2.88 5.005-4.615 4.53-1.73-.47-2.47-3.27-1.655-6.25.815-2.98 2.88-5.01 4.61-4.535 1.735.475 2.475 3.275 1.66 6.255zm-1.655-6.255 2.22 1.19-2.955 10.785-2.22-1.19 2.955-10.785zm3.88 7.445c-.815 2.975-2.885 5.005-4.615 4.53-1.73-.475-2.475-3.27-1.655-6.25.815-2.98 2.88-5.01 4.61-4.535 1.73.475 2.475 3.275 1.66 6.255zm-1.455-.4c-.44 1.595-1.545 2.685-2.475 2.43-.925-.255-1.325-1.755-.89-3.35.44-1.6 1.545-2.685 2.475-2.43.93.255 1.325 1.755.89 3.35zm-14.125-30.81-5.865 3.36 2.385 5.43 5.865-3.36-2.385-5.43zm-16.99 12.84c-.895 3.275-3.17 5.51-5.075 4.99-1.91-.52-2.725-3.605-1.825-6.885.895-3.275 3.17-5.51 5.075-4.99 1.905.525 2.725 3.605 1.825 6.885zm-3.5-1.825c-.895 3.275-3.17 5.51-5.075 4.99-1.91-.525-2.725-3.605-1.825-6.885.895-3.275 3.17-5.51 5.075-4.99 1.91.525 2.725 3.605 1.825 6.885zm-1.825-6.885 3.5 1.825-3.25 11.875-3.5-1.825 3.25-11.875zm20.475.7c1.4 3.2.895 6.515-1.13 7.41-2.03.89-4.815-.98-6.22-4.18-1.405-3.2-.9-6.515 1.13-7.405 2.03-.89 4.815.98 6.22 4.175zm-13.04 32.63-1.595 1.02v-8.905l1.595-1.02v8.905zm-1.595 1.025-1.045-.29v-8.935l1.045.315v8.91zm-2.055-2.005-1.595 1.02v-8.905l1.595-1.025v8.91zm-1.595 1.02-1.04-.285v-8.94l1.04.32v8.905zm6.105-8.705c0 1.17-1.83 2.12-4.085 2.12s-4.085-.95-4.085-2.12c0-1.17 1.83-2.12 4.085-2.12s4.085.95 4.085 2.12zm0-4.445h-8.17v4.445h8.17v-4.445zm1.05-.265c0 1.47-2.3 2.665-5.135 2.665s-5.135-1.195-5.135-2.665 2.3-2.66 5.135-2.66 5.135 1.19 5.135 2.66zm0-6.64h-10.27v6.645h10.27v-6.645zm0-.005c0 1.47-2.3 2.665-5.135 2.665s-5.135-1.195-5.135-2.665 2.3-2.66 5.135-2.66 5.135 1.19 5.135 2.66zm-7.325-9.625 12.235-7.16 5.09 11.585-12.24 7.16-5.085-11.585zm6.215 4.18c1.405 3.195.9 6.51-1.13 7.405-2.025.89-4.81-.98-6.215-4.18-1.405-3.2-.9-6.515 1.13-7.405 2.025-.89 4.81.98 6.215 4.18zm2.08 3.35c-.895 3.28-3.17 5.515-5.08 4.99-1.905-.52-2.72-3.605-1.825-6.88.9-3.28 3.175-5.515 5.08-4.99 1.905.52 2.725 3.6 1.825 6.88zm-1.825-6.88 3.5 1.825-3.255 11.87-3.5-1.825 3.255-11.87zm5.325 8.705c-.895 3.28-3.17 5.515-5.075 4.99-1.91-.52-2.725-3.6-1.83-6.88.9-3.28 3.175-5.515 5.08-4.99 1.905.52 2.725 3.6 1.825 6.88zm-1.6-.44c-.48 1.76-1.7 2.96-2.725 2.68-1.02-.28-1.46-1.935-.975-3.69.48-1.76 1.7-2.955 2.72-2.68 1.025.285 1.46 1.935.98 3.69z" fill="none"/><path stroke-miterlimit="10" stroke="#337BF1" stroke-width=".6965" d="M578.362 581.792s5.478-1.06 6.639 2.186c1.161 3.245-2.226 6.832-4.189 8.81-1.963 1.98-2.891 5.109-1.962 7.954.928 2.847 4.569 6.952 3.851 9.949-.718 2.996-5.013 5.724-5.013 5.724" fill="none"/><path stroke-miterlimit="10" stroke="#7BE7F1" stroke-width=".4645" d="M575.251 579.959s7.429-1.044 11.26 1.833c3.83 2.878 4.758 6.011 4.178 9.493-.58 3.482-7.197 18.347-16.134 23.334" fill="none"/><path fill="#1D64BB" d="M570.73 577.403c1.405 3.198.9 6.514-1.13 7.405-2.028.89-4.812-.98-6.216-4.179-1.406-3.198-.9-6.514 1.129-7.405 2.028-.891 4.812.98 6.217 4.179z"/><path fill="#1D64BB" d="m547.078 583.147 17.435-9.923 5.087 11.583-17.434 9.924-5.088-11.584z"/><path fill="#145284" d="M570.551 581.792c0 1.827-1.248 3.308-2.786 3.308-1.539 0-2.786-1.481-2.786-3.308 0-1.827 1.247-3.308 2.786-3.308 1.538 0 2.786 1.481 2.786 3.308z"/><path fill="#5ADCE1" d="M553.366 612.144c-.817 2.978-2.882 5.008-4.614 4.533-1.731-.474-2.474-3.273-1.658-6.252.816-2.978 2.882-5.008 4.614-4.533 1.731.474 2.474 3.273 1.658 6.252z"/><path fill="#5ADCE1" d="M551.911 611.745c-.438 1.597-1.545 2.685-2.473 2.431-.929-.254-1.327-1.755-.89-3.352.438-1.596 1.545-2.684 2.474-2.43.928.254 1.326 1.755.889 3.351z"/><path fill="#5ADCE1" d="M551.143 610.955c-.816 2.978-2.882 5.008-4.614 4.533-1.731-.474-2.474-3.273-1.658-6.252.816-2.978 2.882-5.008 4.614-4.533 1.731.474 2.474 3.273 1.658 6.252z"/><path fill="#5ADCE1" d="m549.768 604.805 2.252 1.203-3.268 10.67-2.223-1.19 3.239-10.683z"/><path fill="#337BF1" d="m525.544 641.457 37.52-20.11 40.131 21.241-38.854 21.706-38.797-22.837z"/><path fill="#246DD7" d="m525.545 645.635 38.796 22.837v-4.178l-38.796-22.837v4.178z"/><path fill="#1D64BB" d="m603.195 646.767-38.855 21.705v-4.178l38.855-21.706v4.179z"/><path stroke-miterlimit="10" stroke="#7BE7F1" stroke-width=".6965" d="M566.372 660.8c0 .59-.923 1.07-2.06 1.07-1.138 0-2.06-.48-2.06-1.07 0-.591.922-1.07 2.06-1.07 1.137 0 2.06.479 2.06 1.07zM533.549 641.457c0 .59-.923 1.069-2.06 1.069-1.139 0-2.061-.478-2.061-1.07 0-.59.922-1.069 2.06-1.069s2.061.479 2.061 1.07zM599.533 642.526c0 .591-.923 1.07-2.06 1.07-1.138 0-2.06-.479-2.06-1.07 0-.591.922-1.069 2.06-1.069 1.137 0 2.06.478 2.06 1.069z" fill="none"/><path fill="#246DD7" d="M587.37 641.063c0 6.564-10.248 11.885-22.889 11.885s-22.889-5.321-22.889-11.885c0-6.563 10.248-11.884 22.889-11.884s22.888 5.32 22.888 11.884z"/><path fill="#246DD7" d="M541.592 641.063h45.777v-5.073h-45.777v5.073z"/><path fill="#4389EE" d="M587.37 635.99c0 6.564-10.248 11.885-22.889 11.885s-22.889-5.321-22.889-11.884c0-6.564 10.248-11.885 22.889-11.885s22.888 5.321 22.888 11.885z"/><path fill="#246DD7" d="M584.421 635.028c0 5.714-8.927 10.346-19.94 10.346-11.013 0-19.941-4.632-19.941-10.346 0-5.713 8.928-10.345 19.94-10.345 11.014 0 19.941 4.632 19.941 10.345z"/><path fill="#246DD7" d="M544.54 635.028h39.881v-4.31H544.54v4.31z"/><path fill="#4389EE" d="M584.421 630.718c0 5.714-8.927 10.345-19.94 10.345-11.013 0-19.941-4.631-19.941-10.345s8.928-10.346 19.94-10.346c11.014 0 19.941 4.632 19.941 10.346z"/><path fill="#5ADCE1" d="m547.395 630.487 15.669 8.445v-11.608l-15.669-8.445v11.608z"/><path fill="#7BE7F1" d="m581.462 628.023-18.398 10.909v-11.608l18.398-10.91v11.609z"/><path fill="#4389EE" d="m581.461 616.414-15.669-8.445-18.398 10.91 15.67 8.445 18.397-10.91z"/><path fill="#337BF1" d="m578.362 580.045-2.59 7.93-20.735 33.893-5.303-2.48-.297-.14c-1.782-.937-2.47-4.122-1.55-7.502a10.745 10.745 0 0 1 1.272-2.925v-.01l.232-.352 18.571-28.266.455-.687.075-.102v-.01c1.188-1.606 2.702-2.47 4.048-2.098.251.074.492.176.706.335l5.116 2.414z"/><path fill="#1D64BB" d="M580.405 587.752a10.883 10.883 0 0 1-1.412 3.148l-.083.13-18.72 28.488c-1.235 1.978-2.935 3.092-4.439 2.683-2.136-.585-3.045-4.03-2.042-7.707a10.76 10.76 0 0 1 1.272-2.924v-.01l.232-.353 18.571-28.265.455-.687.074-.102v-.01c1.19-1.606 2.703-2.47 4.05-2.098 2.135.585 3.045 4.03 2.042 7.707z"/><path stroke-miterlimit="10" stroke="#7BE7F1" stroke-width=".6965" d="M578.838 586.666c-.437 1.596-1.545 2.685-2.473 2.43-.928-.253-1.327-1.754-.889-3.351.437-1.597 1.545-2.685 2.473-2.43.928.254 1.326 1.754.89 3.35z" fill="none"/><path fill="#337BF1" d="M553.296 587.325c1.405 3.199.899 6.514-1.13 7.406-2.028.89-4.813-.98-6.217-4.179-1.405-3.198-.9-6.514 1.129-7.405s4.812.98 6.218 4.178z"/><path fill="#145284" d="M551.343 588.302c.659 1.499.422 3.053-.529 3.47-.95.418-2.255-.459-2.914-1.958-.658-1.5-.421-3.053.53-3.47.95-.418 2.255.459 2.913 1.958z"/><path stroke-miterlimit="10" stroke="#337BF1" stroke-width=".4645" d="M559.606 627.83c.088.559-.153 1.06-.536 1.12-.385.06-.766-.343-.854-.901-.088-.558.152-1.06.536-1.12.384-.06.766.344.854.902zM559.606 634.272c.088.559-.153 1.06-.536 1.12-.385.06-.766-.343-.854-.901-.088-.559.152-1.06.536-1.12.384-.061.766.343.854.901zM551.289 623.557c.087.558-.154 1.06-.537 1.12-.384.06-.766-.343-.854-.902-.087-.558.153-1.06.537-1.12.384-.06.766.344.854.902zM551.289 629.592c.087.558-.154 1.059-.537 1.12-.384.06-.766-.344-.854-.902-.087-.558.153-1.06.537-1.12.384-.06.766.344.854.902zM577.169 623.426l-8.531 5.048v-1.785l8.531-5.047v1.784zM577.169 627.826l-8.531 5.047v-1.785l8.531-5.046v1.784z" fill="none"/><path stroke-miterlimit="10" stroke="#7BE7F1" stroke-width=".4645" d="m565.857 607.134-4.239-2.74 5.497-8.503 4.24 2.74-5.498 8.503zM571.992 597.646l-4.24-2.74.64-.989 4.238 2.74-.638.989zM573.268 595.672l-4.239-2.74.639-.989 4.239 2.74-.639.989z" fill="none"/><path fill="#5ADCE1" d="M561.786 616.362c-.816 2.978-2.881 5.008-4.613 4.533-1.731-.474-2.474-3.273-1.658-6.252.816-2.978 2.882-5.008 4.613-4.533 1.732.474 2.474 3.273 1.658 6.252z"/><path fill="#5ADCE1" d="m560.129 610.11 2.222 1.189-2.955 10.786-2.222-1.19 2.955-10.785z"/><path fill="#7BE7F1" d="M564.01 617.55c-.817 2.979-2.882 5.009-4.614 4.534-1.731-.474-2.474-3.273-1.658-6.252.816-2.978 2.882-5.008 4.614-4.533 1.731.474 2.473 3.273 1.657 6.252z"/><path fill="#145284" d="M562.555 617.152c-.438 1.597-1.545 2.685-2.473 2.43-.929-.253-1.327-1.754-.889-3.351.437-1.596 1.545-2.685 2.473-2.43.928.254 1.326 1.755.889 3.351zM548.43 586.343l-5.865 3.36 2.385 5.43 5.864-3.361-2.384-5.429z"/><path fill="#5ADCE1" d="M531.442 599.18c-.898 3.28-3.171 5.514-5.078 4.992-1.906-.522-2.723-3.604-1.825-6.882.898-3.28 3.172-5.513 5.078-4.991 1.906.522 2.724 3.603 1.825 6.882z"/><path fill="#5ADCE1" d="M527.943 597.357c-.899 3.278-3.172 5.513-5.078 4.99-1.907-.522-2.724-3.603-1.826-6.882.898-3.279 3.172-5.513 5.078-4.991 1.907.522 2.724 3.604 1.826 6.883z"/><path fill="#5ADCE1" d="m526.117 590.475 3.5 1.824-3.253 11.874-3.5-1.825 3.253-11.873z"/><path fill="#1D64BB" d="M546.588 591.175c1.405 3.199.9 6.514-1.129 7.406-2.029.89-4.813-.98-6.218-4.179-1.405-3.198-.899-6.514 1.13-7.405 2.028-.891 4.812.98 6.217 4.178z"/><path fill="#7BE7F1" d="m533.549 623.803-1.592 1.022v-8.906l1.592-1.021v8.905z"/><path fill="#5ADCE1" d="m531.957 624.825-1.045-.285v-8.938l1.045.317v8.906z"/><path fill="#7BE7F1" d="m529.9 622.821-1.592 1.022v-8.907l1.592-1.021v8.906z"/><path fill="#5ADCE1" d="m528.308 623.843-1.045-.286v-8.937l1.045.316v8.907z"/><path fill="#145284" d="M534.411 615.138c0 1.17-1.829 2.118-4.085 2.118-2.257 0-4.086-.948-4.086-2.118s1.83-2.118 4.086-2.118c2.256 0 4.085.948 4.085 2.118z"/><path fill="#145284" d="M534.411 610.69h-8.17v4.448h8.17v-4.448z"/><path fill="#246DD7" d="M535.462 610.43c0 1.47-2.3 2.663-5.136 2.663-2.836 0-5.135-1.193-5.135-2.663 0-1.471 2.299-2.663 5.135-2.663s5.136 1.192 5.136 2.663z"/><path fill="#246DD7" d="M535.462 603.786h-10.271v6.645h10.271v-6.645z"/><path fill="#4389EE" d="M535.462 603.785c0 1.47-2.3 2.663-5.136 2.663-2.836 0-5.135-1.193-5.135-2.663 0-1.47 2.299-2.663 5.135-2.663s5.136 1.193 5.136 2.663z"/><path fill="#1D64BB" d="m528.134 594.158 12.237-7.161 5.087 11.584-12.236 7.16-5.088-11.583z"/><path fill="#337BF1" d="M534.352 598.336c1.405 3.198.9 6.514-1.13 7.405-2.028.891-4.813-.98-6.217-4.179-1.405-3.198-.9-6.514 1.129-7.404 2.029-.892 4.812.979 6.218 4.178z"/><path fill="#5ADCE1" d="M536.432 601.688c-.898 3.279-3.173 5.513-5.079 4.99-1.906-.521-2.724-3.603-1.825-6.881.898-3.279 3.172-5.513 5.078-4.991 1.906.523 2.724 3.603 1.826 6.882z"/><path fill="#5ADCE1" d="m534.606 594.806 3.5 1.825-3.253 11.873-3.5-1.825 3.253-11.873z"/><path fill="#7BE7F1" d="M539.932 603.513c-.899 3.279-3.173 5.513-5.079 4.99-1.906-.521-2.724-3.603-1.825-6.881.898-3.279 3.172-5.514 5.078-4.991 1.906.522 2.724 3.603 1.826 6.882z"/><path fill="#145284" d="M538.33 603.074c-.482 1.758-1.7 2.956-2.722 2.676-1.022-.28-1.46-1.932-.979-3.69.482-1.757 1.701-2.955 2.723-2.675 1.022.28 1.46 1.932.978 3.689z"/></g><g style="display:block"><path stroke-linejoin="round" stroke="#7CE7F2" stroke-opacity=".4" stroke-width="2.5" d="m735.43 586.374-99.59-57.595v-5.995l99.59 57.595v5.995zm36.626-21.69-36.625 21.695v-6l36.625-21.69v5.995zm0-5.995-99.59-57.595-36.625 21.69 99.59 57.595 36.625-21.69zm-103.25-21.955-15.09-8.36v-1.97l15.09 8.355v1.975zm15.38-9-15.38 9v-1.975l15.38-9v1.975zm-30.47-1.33 15.09 8.355 15.38-9-15.09-8.355-15.38 9zm9.195 5.085-9.195-5.085v-9.345l9.195 5.09v9.34zm15.295-9.06-15.295 9.065v-9.345l15.295-9.065v9.345zm-7.05 8.82c0 .605-.99 1.1-2.205 1.1-1.22 0-2.205-.495-2.205-1.1 0-.61.985-1.105 2.205-1.105 1.215 0 2.205.495 2.205 1.105zm66.48 44.43c0 .605-.99 1.1-2.205 1.1-1.22 0-2.205-.495-2.205-1.1 0-.61.985-1.105 2.205-1.105 1.215 0 2.205.495 2.205 1.105zm-93.67-53.235c0 .61-.985 1.105-2.205 1.105-1.22 0-2.205-.495-2.205-1.105s.985-1.1 2.205-1.1c1.22 0 2.205.49 2.205 1.1zm123.815 35.915c0 .61-.985 1.1-2.205 1.1-1.22 0-2.205-.49-2.205-1.1 0-.61.985-1.105 2.205-1.105 1.22 0 2.205.495 2.205 1.105zm-87.37-32.6c0 .61-.985 1.105-2.205 1.105-1.215 0-2.205-.495-2.205-1.105 0-.605.99-1.1 2.205-1.1 1.22 0 2.205.495 2.205 1.1zm-18.195-1.485s-1.04.765-5.745-1.585c-4.7-2.35-7.225-4.53-7.225-4.53s-3.045-3.655-2.525-10.445c.525-6.79 3.395-11.405 5.225-14.365 1.83-2.96 4.09-5.655 5.225-8.095 1.13-2.435.345-7.835.345-7.835l15.41-1.305v38.825l-10.71 9.335zm4.095-.89c-6.18 3.02-10.115-1.88-10.115-1.88s-3.045-3.66-2.52-10.45c.52-6.79 3.395-11.4 5.22-14.36 1.83-2.96 4.09-5.66 5.225-8.1 1.13-2.435.345-7.835.345-7.835l10.13-2.895-.275 8.785s8.44 1.565 8.44 11.75c0 4.135-1.045 14.685-5.835 18.66-2.375 1.975-5.895 4.02-10.615 6.325zm10.185-45.15c0 3.415-4.755 6.185-10.62 6.185-5.865 0-10.62-2.77-10.62-6.185 0-3.41 4.755-6.18 10.62-6.18 5.865 0 10.62 2.77 10.62 6.18zm-21.24-2.12h21.24v2.31h-21.24v-2.31zm21.24 0c0 3.415-4.755 6.18-10.62 6.18-5.865 0-10.62-2.765-10.62-6.18 0-3.415 4.755-6.18 10.62-6.18 5.865 0 10.62 2.765 10.62 6.18zm-3.175 0c0 2.395-3.335 4.335-7.445 4.335-4.115 0-7.445-1.94-7.445-4.335s3.33-4.335 7.445-4.335c4.11 0 7.445 1.94 7.445 4.335zm6.09 33.24c3.83-7.92 2.76-16.355-2.385-18.84-5.145-2.49-12.42 1.915-16.245 9.835-3.83 7.915-2.76 16.355 2.385 18.84 5.145 2.485 12.42-1.92 16.245-9.835zm1.06.8c3.83-7.92 2.76-16.355-2.385-18.84-5.145-2.485-12.42 1.915-16.25 9.835-3.825 7.92-2.755 16.355 2.39 18.84 5.145 2.49 12.42-1.915 16.245-9.835zm-.915-.335c3.11-6.435 2.24-13.29-1.94-15.315-4.185-2.02-10.095 1.56-13.205 8-3.11 6.435-2.245 13.29 1.94 15.315 4.18 2.02 10.095-1.56 13.205-8zm-.92-.55c2.64-5.465 1.9-11.285-1.65-13-3.545-1.715-8.565 1.325-11.205 6.785-2.64 5.465-1.9 11.285 1.65 12.995 3.55 1.72 8.565-1.32 11.205-6.78zm13.965 3.105.935 7.835-5.535 2.075-6.36 3.24-10.47-5.68v-8.74c.085-1.43.475-2.98 1.21-4.505 2.05-4.235 5.94-6.59 8.7-5.265l.295.17 10.235 5.56.99 5.31zm-15.235 2.61c.835 1.445.755 3.05-.175 3.585-.93.535-2.36-.2-3.19-1.64-.835-1.445-.755-3.05.17-3.585.93-.54 2.36.195 3.195 1.64zm10.87-9.755s-.755-.195-1.875.12c-4.395 1.235-6.565 6.1-6.565 6.1l-5.185-2.575s2.16-5.51 6.34-6.395c1.23-.265 2.22 0 2.22 0m3.03 36.47-4.56-2.375v-1.975l4.56 2.38v1.97zm11.895-6.875-11.895 6.88v-1.975l11.895-6.88v1.975zm-4.56-4.425-11.895 6.875v-17.28l11.895-6.88v17.285zm4.56 2.45-4.56-2.45-11.895 6.875 4.56 2.455 11.895-6.88zm-5.21-12.955c2.05-4.24 1.475-8.75-1.28-10.085-2.75-1.33-6.645 1.03-8.69 5.265-2.05 4.24-1.48 8.755 1.275 10.085s6.645-1.025 8.695-5.265zm.14-9.4-1.415-.68-7.42 15.345 1.42.685 7.415-15.35zm1.275 10.085c2.05-4.24 1.475-8.75-1.275-10.08-2.755-1.335-6.65 1.025-8.695 5.26-2.05 4.24-1.475 8.755 1.275 10.085 2.755 1.33 6.65-1.025 8.695-5.265zm-3.365-1.31c.555-1.15.4-2.37-.345-2.73-.75-.365-1.805.275-2.36 1.425-.555 1.15-.4 2.375.35 2.735.745.36 1.8-.28 2.355-1.43zm-1.18-5.355c.34-.7.245-1.45-.21-1.67-.46-.225-1.105.17-1.445.87-.34.705-.245 1.455.215 1.675.455.22 1.1-.17 1.44-.875zm3.525-.455c.34-.705.245-1.455-.21-1.675-.46-.22-1.105.17-1.445.875-.34.7-.245 1.45.21 1.675.46.22 1.105-.175 1.445-.875zm1.035 3.375c.34-.7.245-1.45-.215-1.675-.455-.22-1.105.175-1.445.875-.34.705-.245 1.455.215 1.675.455.22 1.105-.17 1.445-.875zm-1.035 4.07c.34-.705.245-1.455-.21-1.675-.46-.22-1.105.17-1.445.875-.34.705-.245 1.455.21 1.675.46.22 1.105-.17 1.445-.875zm-2.695 2.665c.34-.705.245-1.455-.21-1.675-.46-.22-1.105.17-1.445.875-.34.705-.245 1.45.21 1.675.46.22 1.105-.17 1.445-.875zm-3.43.28c.34-.705.245-1.455-.21-1.675-.46-.22-1.105.17-1.445.875-.34.705-.245 1.45.215 1.675.455.22 1.1-.17 1.44-.875zm-1.26-3.195c.34-.7.245-1.45-.215-1.67-.455-.225-1.1.17-1.44.87-.34.705-.245 1.455.21 1.675.46.22 1.105-.17 1.445-.875zm1.26-3.82c.34-.7.245-1.45-.21-1.675-.46-.22-1.105.175-1.445.875-.34.705-.245 1.455.215 1.675.455.22 1.1-.17 1.44-.875zm3.14 2.12c.25-.515.18-1.065-.16-1.225-.335-.165-.805.125-1.055.64-.25.515-.18 1.065.155 1.23.335.16.81-.125 1.06-.645zm-.16-1.225 5.3 2.935-1.03 1.715-5.17-2.78.9-1.87zm5.24 4.19c.67-1.38.485-2.855-.415-3.285-.895-.435-2.165.335-2.835 1.715-.665 1.38-.48 2.85.42 3.285.895.435 2.165-.335 2.83-1.715zm-.415-3.29 3.935 1.905-2.42 5-3.93-1.9 2.415-5.005zm4.35 5.19c.67-1.38.48-2.855-.415-3.285-.9-.435-2.165.335-2.835 1.715-.665 1.38-.48 2.85.415 3.285.9.435 2.17-.335 2.835-1.715zm-1.015-.49c.25-.52.18-1.07-.16-1.23-.335-.165-.805.125-1.055.64-.25.515-.18 1.065.155 1.23.335.16.81-.125 1.06-.64zm-.16-1.23 5.3 2.94-1.03 1.715-5.17-2.785.9-1.87zm-10.54 15.085c0 .385-.625.7-1.395.7s-1.39-.315-1.39-.7c0-.385.62-.695 1.39-.695.77 0 1.395.31 1.395.695zm7.335-4.29c0 .385-.625.695-1.395.695s-1.39-.31-1.39-.695c0-.385.62-.695 1.39-.695.77 0 1.395.31 1.395.695zm31.27 41.73-33.75-19.415v-8.27l33.75 19.415v8.27zm13.38-14.12-13.38 7.055v-1.205l13.38-7.05v1.2zm-12.095 6.37-1.285.685v7.065l1.285-.685v-7.065zm-35.03-19.935 17.9-9.755 37.205 17.91-21.36 11.26-33.745-19.415zm25.655-12.19c3.82-7.9 2.75-16.32-2.385-18.8-5.135-2.485-12.39 1.91-16.21 9.815-3.82 7.905-2.755 16.32 2.38 18.805 5.135 2.48 12.395-1.915 16.215-9.82zm27.24-2.625-29.625-16.175-13.83 28.62 29.62 16.175 13.835-28.62zm-24.17-13.155c-5.135-2.48-12.39 1.915-16.21 9.815-3.82 7.905-2.755 16.325 2.38 18.805m26.39 18.385-9.2-5.09v-22.535l9.2 5.085v22.54zm19.595-33.86-9.195-5.09-19.595 11.325 9.195 5.085 19.595-11.32zm0 0v22.465l-19.595 11.395v-22.54l19.595-11.32zm-1.465 21.07c3.145-6.505 2.265-13.44-1.965-15.48-4.225-2.045-10.2 1.575-13.345 8.08-3.145 6.51-2.265 13.44 1.96 15.48 4.23 2.045 10.205-1.575 13.35-8.08zm-1.96-15.48 4.02 1.94-11.39 23.565-4.02-1.945 11.39-23.56zm5.795 17.335c3.145-6.51 2.27-13.44-1.96-15.48-4.23-2.045-10.205 1.575-13.35 8.08-3.145 6.505-2.265 13.44 1.965 15.48 4.225 2.045 10.2-1.575 13.345-8.08zm-1.4-.675c1.87-3.875 1.35-7.995-1.165-9.21-2.515-1.22-6.07.935-7.94 4.805-1.875 3.87-1.35 7.995 1.165 9.21 2.515 1.215 6.07-.935 7.94-4.805z" fill="none"/><path fill="#246DD7" d="m735.43 586.376-99.59-57.595v-5.998l99.59 57.597v5.996z"/><path fill="#1D64BB" d="m772.056 564.686-36.627 21.691v-5.997l36.627-21.691v5.997z"/><path fill="#337BF1" d="m772.056 558.689-99.59-57.596-36.626 21.69 99.589 57.596 36.627-21.69z"/><path fill="#246DD7" d="m668.806 536.733-15.09-8.357v-1.973l15.09 8.357v1.973z"/><path fill="#1D64BB" d="m684.185 527.734-15.38 8.998v-1.972l15.38-8.999v1.973z"/><path fill="#337BF1" d="m653.716 526.402 15.089 8.357 15.38-8.998-15.09-8.357-15.38 8.998z"/><path fill="#246DD7" d="m662.911 531.492-9.196-5.09v-9.343l9.196 5.089v9.344z"/><path fill="#145284" d="m678.207 522.427-15.296 9.065v-9.344l15.296-9.064v9.343z"/><path stroke-miterlimit="10" stroke="#7BE7F1" stroke-width=".6965" d="M671.156 531.247c0 .609-.988 1.102-2.206 1.102s-2.205-.493-2.205-1.102c0-.61.987-1.103 2.205-1.103s2.206.494 2.206 1.103zM737.635 575.677c0 .609-.988 1.103-2.205 1.103-1.219 0-2.206-.494-2.206-1.103s.987-1.102 2.206-1.102c1.217 0 2.205.493 2.205 1.102zM643.966 522.445c0 .609-.987 1.103-2.205 1.103s-2.206-.494-2.206-1.103c0-.61.988-1.103 2.206-1.103s2.205.494 2.205 1.103zM767.782 558.358c0 .609-.988 1.103-2.206 1.103s-2.205-.494-2.205-1.103.987-1.102 2.205-1.102 2.206.493 2.206 1.102zM680.412 525.761c0 .609-.987 1.103-2.205 1.103S676 526.37 676 525.76s.988-1.102 2.206-1.102 2.205.493 2.205 1.102z" fill="none"/><path fill="#337BF1" d="M662.218 524.275s-1.045.764-5.745-1.587c-4.702-2.35-7.226-4.527-7.226-4.527s-3.047-3.656-2.524-10.446c.522-6.79 3.395-11.404 5.223-14.364 1.828-2.96 4.091-5.658 5.223-8.096 1.132-2.437.348-7.834.348-7.834l15.408-1.306v38.826l-10.707 9.334z"/><path fill="#1D64BB" d="M666.31 523.385c-6.181 3.018-10.113-1.883-10.113-1.883s-3.046-3.656-2.524-10.446c.522-6.79 3.396-11.404 5.224-14.364 1.828-2.96 4.09-5.658 5.223-8.096 1.132-2.437.347-7.835.347-7.835l10.128-2.896-.276 8.783s8.443 1.567 8.443 11.753c0 4.133-1.044 14.682-5.835 18.658-2.378 1.973-5.895 4.02-10.617 6.326z"/><path fill="#246DD7" d="M676.495 478.237c0 3.413-4.756 6.18-10.621 6.18-5.866 0-10.62-2.767-10.62-6.18 0-3.414 4.754-6.181 10.62-6.181 5.865 0 10.62 2.767 10.62 6.18z"/><path fill="#246DD7" d="M655.254 476.115h21.24v2.307h-21.24v-2.307z"/><path fill="#337BF1" d="M676.495 476.115c0 3.413-4.756 6.181-10.621 6.181-5.866 0-10.62-2.768-10.62-6.181 0-3.414 4.754-6.181 10.62-6.181 5.865 0 10.62 2.767 10.62 6.18z"/><path fill="#145284" d="M673.32 476.115c0 2.393-3.334 4.333-7.446 4.333s-7.446-1.94-7.446-4.333c0-2.394 3.334-4.334 7.446-4.334s7.446 1.94 7.446 4.334z"/><path fill="#1D64BB" d="M679.413 509.353c3.827-7.92 2.758-16.354-2.387-18.841-5.146-2.486-12.42 1.917-16.246 9.836-3.827 7.919-2.758 16.355 2.387 18.841 5.146 2.487 12.419-1.917 16.246-9.836z"/><path fill="#145284" d="M680.472 510.155c3.827-7.92 2.758-16.354-2.387-18.841-5.146-2.486-12.42 1.917-16.247 9.836-3.826 7.919-2.757 16.354 2.388 18.841 5.145 2.487 12.419-1.917 16.246-9.836z"/><path stroke-miterlimit="10" stroke="#7BE7F1" stroke-width=".6965" d="M679.556 509.821c3.11-6.437 2.242-13.293-1.941-15.315-4.182-2.021-10.094 1.559-13.205 7.996-3.111 6.437-2.242 13.294 1.94 15.315 4.183 2.021 10.095-1.559 13.206-7.996z" fill="none"/><path fill="#246DD7" d="M678.636 509.267c2.639-5.462 1.902-11.281-1.648-12.996-3.549-1.715-8.566 1.323-11.205 6.785-2.64 5.462-1.903 11.28 1.646 12.995 3.55 1.716 8.567-1.322 11.207-6.784z"/><path fill="#5ADCE1" d="m692.6 512.372.937 7.835-5.538 2.077-6.36 3.238-10.466-5.68v-8.738c.083-1.43.474-2.98 1.207-4.503 2.052-4.235 5.943-6.593 8.7-5.265l.298.167 10.232 5.562.99 5.307z"/><path stroke-miterlimit="10" stroke="#337BF1" stroke-width=".4645" d="M677.366 514.984c.833 1.443.755 3.049-.175 3.585-.93.537-2.359-.198-3.192-1.641-.834-1.444-.755-3.049.174-3.586.93-.536 2.36.198 3.193 1.642z" fill="none"/><path stroke-linecap="round" stroke-miterlimit="10" stroke="#337BF1" stroke-width=".4645" d="M688.234 505.23s-.755-.195-1.873.12c-4.395 1.237-6.563 6.099-6.563 6.099l-5.19-2.573s2.164-5.514 6.34-6.399a5.279 5.279 0 0 1 2.222 0" fill="none"/><path fill="#246DD7" d="m686.201 538.952-4.562-2.38V534.6l4.562 2.379v1.973z"/><path fill="#1D64BB" d="m698.098 532.073-11.897 6.879v-1.973l11.897-6.879v1.973z"/><path fill="#145284" d="m693.537 527.647-11.898 6.878v-17.282l11.898-6.878v17.282z"/><path fill="#337BF1" d="m698.098 530.1-4.561-2.453-11.898 6.879 4.562 2.453 11.897-6.88z"/><path fill="#1D64BB" d="M692.886 517.144c2.048-4.238 1.476-8.752-1.278-10.082-2.754-1.331-6.646 1.026-8.694 5.264-2.048 4.238-1.476 8.752 1.277 10.082 2.754 1.331 6.647-1.025 8.695-5.264z"/><path fill="#1D64BB" d="m693.025 507.746-1.414-.681-7.42 15.344 1.417.684 7.417-15.347z"/><path fill="#7BE7F1" d="M694.302 517.829c2.048-4.238 1.476-8.752-1.278-10.082-2.753-1.331-6.646 1.026-8.694 5.264-2.048 4.238-1.476 8.752 1.278 10.082 2.753 1.331 6.646-1.025 8.694-5.264z"/><path fill="#246DD7" d="M690.937 516.52c.555-1.148.4-2.372-.346-2.733-.748-.36-1.803.278-2.358 1.427-.556 1.149-.401 2.373.346 2.734.746.36 1.803-.278 2.358-1.427z"/><path stroke-miterlimit="10" stroke="#337BF1" stroke-width=".4645" d="M689.757 511.166c.34-.703.245-1.453-.212-1.674-.457-.221-1.104.17-1.444.874-.34.704-.245 1.454.212 1.674.458.221 1.104-.17 1.444-.874zM693.282 510.707c.34-.703.244-1.453-.213-1.674-.457-.221-1.103.17-1.444.874-.34.704-.245 1.454.213 1.675.457.22 1.103-.171 1.444-.875zM694.314 514.086c.34-.704.245-1.453-.213-1.675-.457-.221-1.103.171-1.443.875-.34.704-.245 1.454.212 1.674.457.221 1.103-.171 1.444-.874zM693.282 518.155c.34-.704.244-1.453-.213-1.674-.457-.221-1.103.17-1.444.874-.34.704-.245 1.453.213 1.674.457.22 1.103-.17 1.444-.874zM690.586 520.818c.34-.704.245-1.453-.212-1.675-.458-.22-1.104.17-1.444.875-.34.704-.245 1.453.212 1.674.457.22 1.104-.17 1.444-.874zM687.158 521.098c.34-.703.245-1.453-.213-1.674-.457-.221-1.103.17-1.443.874-.34.704-.245 1.454.212 1.675.457.22 1.103-.171 1.444-.875zM685.895 517.907c.34-.704.245-1.453-.212-1.675-.458-.22-1.104.17-1.444.875-.34.704-.245 1.453.212 1.674.457.22 1.104-.17 1.444-.874zM687.158 514.086c.34-.704.245-1.453-.213-1.675-.457-.221-1.103.171-1.443.875-.34.704-.245 1.454.212 1.674.457.221 1.103-.171 1.444-.874z" fill="none"/><path fill="#145284" d="M690.294 516.206c.249-.516.179-1.066-.156-1.228-.335-.162-.81.125-1.06.64-.249.517-.179 1.068.157 1.23.335.162.809-.126 1.059-.642z"/><path fill="#145284" d="m690.138 514.978 5.3 2.938-1.032 1.715-5.171-2.784.903-1.87z"/><path fill="#246DD7" d="M695.378 519.168c.667-1.381.48-2.852-.417-3.286-.897-.433-2.166.335-2.833 1.716-.668 1.381-.481 2.852.416 3.286.898.434 2.166-.334 2.834-1.716z"/><path fill="#246DD7" d="m694.961 515.882 3.933 1.9-2.417 5.003-3.933-1.901 2.417-5.002z"/><path fill="#7BE7F1" d="M699.311 521.069c.668-1.382.481-2.852-.416-3.286-.898-.434-2.166.334-2.834 1.715-.667 1.381-.481 2.852.417 3.286.897.434 2.166-.334 2.833-1.715z"/><path fill="#145284" d="M698.294 520.577c.249-.516.179-1.066-.156-1.228-.335-.162-.81.125-1.06.64-.249.517-.18 1.068.156 1.23.336.162.81-.126 1.06-.642z"/><path fill="#145284" d="m698.138 519.349 5.3 2.938-1.032 1.715-5.172-2.784.904-1.87z"/><path stroke-miterlimit="10" stroke="#7BE7F1" stroke-width=".6965" d="M687.594 534.436c0 .385-.624.697-1.393.697-.77 0-1.393-.312-1.393-.697 0-.385.624-.696 1.393-.696s1.393.311 1.393.696zM694.93 530.144c0 .385-.624.697-1.393.697-.77 0-1.393-.312-1.393-.697 0-.385.623-.696 1.393-.696.769 0 1.393.311 1.393.696z" fill="none"/><path fill="#246DD7" d="m726.202 571.873-33.749-19.413v-8.27l33.749 19.413v8.27z"/><path fill="#1D64BB" d="m739.579 557.756-13.377 7.051v-1.204l13.377-7.051v1.204z"/><path fill="#1D64BB" d="m727.486 564.125-1.284.682v7.066l1.284-.682v-7.066z"/><path fill="#337BF1" d="m692.454 544.19 17.904-9.754 37.2 17.908-21.356 11.259-33.748-19.413z"/><path fill="#1D64BB" d="M718.11 532c3.82-7.903 2.753-16.322-2.383-18.803-5.135-2.481-12.393 1.914-16.212 9.817-3.82 7.903-2.754 16.322 2.381 18.804 5.136 2.481 12.395-1.914 16.215-9.817z"/><path fill="#1D64BB" d="m745.348 529.375-29.621-16.177-13.831 28.62 29.62 16.178 13.832-28.621z"/><path stroke-linecap="round" stroke-miterlimit="10" stroke="#337BF1" stroke-width=".4645" d="M721.183 516.219c-5.135-2.482-12.394 1.913-16.214 9.817-3.819 7.903-2.752 16.322 2.383 18.803" fill="none"/><path fill="#246DD7" d="m733.739 563.224-9.196-5.089v-22.538l9.196 5.089v22.538z"/><path fill="#337BF1" d="m753.337 529.364-9.196-5.089-19.598 11.322 9.196 5.089 19.598-11.322z"/><path fill="#1D64BB" d="M753.337 529.365v22.466l-19.598 11.394v-22.538l19.598-11.322z"/><path fill="#145284" d="M751.87 550.434c3.145-6.507 2.266-13.438-1.962-15.482-4.228-2.043-10.204 1.576-13.349 8.083-3.144 6.507-2.265 13.438 1.963 15.48 4.227 2.044 10.204-1.574 13.348-8.081z"/><path fill="#145284" d="m749.908 534.952 4.022 1.944-11.387 23.563-4.021-1.943 11.386-23.564z"/><path fill="#1D64BB" d="M755.708 552.288c3.144-6.507 2.266-13.438-1.962-15.481-4.228-2.043-10.204 1.575-13.349 8.082-3.144 6.507-2.266 13.438 1.962 15.481 4.228 2.044 10.204-1.575 13.349-8.082z"/><path stroke-miterlimit="10" stroke="#7BE7F1" stroke-width=".6965" d="M754.307 551.612c1.87-3.871 1.348-7.995-1.167-9.21-2.515-1.216-6.071.937-7.942 4.808-1.87 3.87-1.348 7.995 1.167 9.21 2.515 1.215 6.072-.938 7.942-4.808z" fill="none"/></g><g style="display:block"><path fill="#C82E5B" d="m341.29 401.897 5.606-3.192 3.497 6.06-5.603 3.193 5.566 9.642-3.519 2.009-5.57-9.644-5.604 3.193-3.5-6.062 5.605-3.192-5.568-9.643 3.523-2.008 5.567 9.644zm.05-16.98c-5.057-2.919-9.626-3.205-12.95-1.31-3.322 1.896-5.383 5.957-5.399 11.767-.014 4.923 1.445 10.288 3.9 15.295 2.453 5.007 5.906 9.642 9.871 13.074.402.349.73.862.891 1.392l3.786 12.555 3.905-8.287c.158-.335.472-.47.858-.372 3.838.967 7.175.241 9.554-1.935 2.375-2.178 3.792-5.791 3.806-10.607l1.319.76-1.319-.76c.017-5.81-2.012-12.232-5.311-17.951-3.303-5.721-7.858-10.703-12.912-13.62z"/><path fill="#4BF1E1" d="m341.36 381.898-.012-.007c-5.775-3.337-11.021-3.666-14.816-1.503-3.796 2.163-6.156 6.83-6.175 13.466-.016 5.623 1.652 11.777 4.46 17.499 2.674 5.45 6.382 10.52 10.657 14.39l4.74 15.721c.202.676.68 1.319 1.21 1.625.527.304 1.007.214 1.216-.224l4.885-10.365c4.14.886 7.722.016 10.313-2.354 2.719-2.487 4.345-6.636 4.361-12.135l-1.318-.761-1.319-.761c-.013 4.816-1.43 8.429-3.806 10.607-2.379 2.176-5.716 2.902-9.553 1.935-.387-.098-.7.037-.858.372l-3.906 8.287-3.785-12.555a3.092 3.092 0 0 0-.892-1.392c-3.965-3.432-7.417-8.067-9.872-13.074-2.454-5.007-3.913-10.372-3.899-15.295.016-5.81 2.078-9.871 5.399-11.767 3.324-1.895 7.893-1.609 12.95 1.31 5.053 2.919 9.608 7.9 12.911 13.62 3.3 5.72 5.328 12.141 5.311 17.952l1.319.76 1.318.762c.019-6.636-2.307-14.008-6.08-20.541-3.766-6.524-8.992-12.242-14.759-15.572z"/><path fill="#FFF" d="m344.79 407.958-3.522 2.007 5.569 9.644 3.52-2.01-5.567-9.641zm-9.067-15.705-3.523 2.008 5.568 9.643 3.522-2.007-5.567-9.644z"/><path fill="#FFF" d="m346.896 398.704-5.606 3.193-3.522 2.007-5.604 3.192 3.5 6.063 5.604-3.194 3.522-2.007 5.603-3.193-3.497-6.061z"/></g><g style="display:block"><path fill="#0DCC86" d="m538.838 529.568 11.155-6.357 3.5 6.062-14.678 8.36-8.451-14.637 3.52-2.01 4.954 8.582zm3.145-22.306c-5.056-2.92-9.625-3.205-12.949-1.314-3.325 1.894-5.382 5.96-5.399 11.767-.014 4.926 1.442 10.29 3.896 15.297 2.458 5.005 5.907 9.638 9.876 13.075.401.347.73.862.891 1.393l3.782 12.552 3.909-8.284c.154-.338.471-.475.858-.376 3.837.97 7.174.244 9.55-1.933 2.379-2.176 3.796-5.79 3.81-10.61l1.318.761-1.319-.761c.017-5.806-2.011-12.232-5.314-17.952-3.3-5.716-7.858-10.7-12.909-13.615z"/><path fill="#4BF1E1" d="M541.992 504.233c-5.775-3.335-11.02-3.667-14.816-1.5-3.796 2.162-6.159 6.827-6.174 13.462-.02 5.621 1.651 11.78 4.459 17.502 2.673 5.45 6.378 10.515 10.652 14.385l4.742 15.725c.206.678.683 1.317 1.21 1.622.53.305 1.01.219 1.216-.22l4.886-10.364c4.141.886 7.724.016 10.316-2.354 2.718-2.487 4.345-6.637 4.357-12.141l-1.315-.76-1.318-.76c-.014 4.82-1.431 8.433-3.81 10.608-2.375 2.178-5.713 2.904-9.55 1.934-.387-.098-.704.038-.858.376l-3.909 8.285-3.782-12.553a3.074 3.074 0 0 0-.891-1.393c-3.968-3.437-7.418-8.07-9.876-13.075-2.454-5.007-3.91-10.37-3.896-15.297.017-5.807 2.075-9.873 5.4-11.767 3.323-1.891 7.892-1.605 12.948 1.315 5.051 2.915 9.61 7.898 12.91 13.614 3.302 5.72 5.33 12.146 5.314 17.952l1.318.762 1.315.759c.022-6.63-2.307-14.004-6.078-20.535-3.767-6.533-8.998-12.25-14.77-15.582z"/><path fill="#FFF" d="m549.994 523.21-11.156 6.358-4.954-8.582-3.52 2.009 8.451 14.639 14.679-8.361-3.5-6.063z"/></g><g style="display:block"><path fill="#0DCC86" d="m705.205 445.703 11.155-6.357 3.5 6.063-14.678 8.36-8.451-14.638 3.52-2.009 4.954 8.581zm3.145-22.305c-5.056-2.92-9.625-3.206-12.949-1.311-3.321 1.892-5.382 5.957-5.399 11.763-.014 4.927 1.442 10.29 3.899 15.299 2.455 5.007 5.904 9.636 9.873 13.073.401.347.729.863.89 1.394l3.783 12.551 3.909-8.284c.157-.335.47-.473.858-.375 3.837.97 7.174.244 9.553-1.932 2.375-2.178 3.793-5.791 3.806-10.611l1.319.762-1.319-.762c.017-5.807-2.011-12.232-5.311-17.947-3.303-5.721-7.858-10.703-12.912-13.62z"/><path fill="#4BF1E1" d="M708.359 420.368c-5.775-3.334-11.021-3.667-14.816-1.5-3.796 2.163-6.159 6.828-6.174 13.462-.02 5.621 1.651 11.781 4.459 17.502 2.674 5.452 6.384 10.52 10.657 14.392l4.737 15.718c.206.678.683 1.321 1.21 1.625.53.306 1.01.216 1.219-.222l4.883-10.365c4.14.886 7.724.016 10.315-2.354 2.719-2.487 4.346-6.637 4.361-12.139l-1.318-.761-1.318-.761c-.014 4.82-1.432 8.433-3.807 10.611-2.378 2.175-5.716 2.901-9.553 1.931-.387-.098-.7.041-.858.376l-3.909 8.285-3.782-12.553a3.074 3.074 0 0 0-.891-1.393c-3.968-3.437-7.418-8.067-9.873-13.073-2.457-5.009-3.913-10.372-3.899-15.299.017-5.807 2.078-9.87 5.399-11.763 3.324-1.895 7.893-1.609 12.949 1.311 5.054 2.917 9.609 7.899 12.912 13.62 3.3 5.715 5.328 12.14 5.312 17.947l1.318.761 1.318.761c.019-6.632-2.307-14.005-6.081-20.537-3.767-6.529-8.998-12.25-14.77-15.582z"/><path fill="#FFF" d="m716.36 439.345-11.156 6.358-4.954-8.582-3.52 2.01 8.452 14.638 14.678-8.361-3.5-6.063z"/></g></g></svg>