<svg xmlns="http://www.w3.org/2000/svg" width="116" height="24" viewBox="0 0 116 24" fill="none" class="mb-3"><path d="M12 0L14.6942 8.2918H23.4127L16.3593 13.4164L19.0534 21.7082L12 16.5836L4.94658 21.7082L7.64074 13.4164L0.587322 8.2918H9.30583L12 0Z" fill="#1E40AF"></path><path d="M34 0L36.6942 8.2918H45.4127L38.3593 13.4164L41.0534 21.7082L34 16.5836L26.9466 21.7082L29.6407 13.4164L22.5873 8.2918H31.3058L34 0Z" fill="#1E40AF"></path><path d="M58 0L60.6942 8.2918H69.4127L62.3593 13.4164L65.0534 21.7082L58 16.5836L50.9466 21.7082L53.6407 13.4164L46.5873 8.2918H55.3058L58 0Z" fill="#1E40AF"></path><path d="M80 0L82.6942 8.2918H91.4127L84.3593 13.4164L87.0534 21.7082L80 16.5836L72.9466 21.7082L75.6407 13.4164L68.5873 8.2918H77.3058L80 0Z" fill="#1E40AF"></path><path d="M104 0L106.694 8.2918H115.413L108.359 13.4164L111.053 21.7082L104 16.5836L96.9466 21.7082L99.6407 13.4164L92.5873 8.2918H101.306L104 0Z" fill="#1E40AF"></path></svg>